<svg xmlns="http://www.w3.org/2000/svg" width="134" height="40" viewBox="0 0 134 40">
    <g fill="none" fill-rule="evenodd">
        <g stroke-linejoin="square">
            <rect width="132.645" height="38.889" x=".344" y=".344" fill="#000" stroke="#A6A6A6" stroke-width=".689" rx="2.755"/>
            <rect width="132.833" height="39.078" x=".25" y=".25" stroke="#8F8F8F" stroke-width=".5" rx="2.755"/>
        </g>
        <path fill="#FFF" d="M51.178 30.395h2.241l-4.905-13.587h-2.27L41.34 30.395h2.165l1.253-3.606h5.178l1.243 3.606zm-3.907-11.12h.16l1.968 5.743h-4.106l1.978-5.743zm12.09.696c-1.393 0-2.599.697-3.22 1.865h-.15V20.14h-1.95v13.578h2.025V28.84h.16c.536 1.083 1.695 1.723 3.154 1.723 2.59 0 4.237-2.043 4.237-5.3 0-3.259-1.648-5.293-4.256-5.293zm-.574 8.776c-1.695 0-2.759-1.337-2.759-3.474 0-2.147 1.064-3.484 2.768-3.484 1.714 0 2.74 1.309 2.74 3.474 0 2.175-1.026 3.484-2.75 3.484zm11.074-8.776c-1.394 0-2.6.697-3.22 1.865h-.151V20.14h-1.95v13.578h2.025V28.84h.16c.537 1.083 1.695 1.723 3.154 1.723 2.59 0 4.238-2.043 4.238-5.3 0-3.259-1.648-5.293-4.256-5.293zm-.575 8.776c-1.695 0-2.759-1.337-2.759-3.474 0-2.147 1.064-3.484 2.769-3.484 1.713 0 2.74 1.309 2.74 3.474 0 2.175-1.027 3.484-2.75 3.484zm9.116-2.006c.15 2.43 2.175 3.983 5.188 3.983 3.22 0 5.235-1.629 5.235-4.227 0-2.044-1.148-3.173-3.936-3.823l-1.497-.367c-1.77-.415-2.485-.97-2.485-1.94 0-1.224 1.11-2.024 2.777-2.024 1.582 0 2.674.781 2.872 2.033h2.053c-.123-2.288-2.138-3.898-4.897-3.898-2.966 0-4.943 1.61-4.943 4.03 0 1.996 1.12 3.183 3.578 3.757l1.751.424c1.799.424 2.59 1.045 2.59 2.08 0 1.206-1.243 2.082-2.938 2.082-1.817 0-3.079-.82-3.258-2.11h-2.09zm12.166-9.086v2.533h-1.686v1.704h1.686v5.791c0 1.977.894 2.768 3.145 2.768.395 0 .762-.047 1.083-.103v-1.686c-.283.029-.443.047-.754.047-1.007 0-1.45-.47-1.45-1.544v-5.273h2.298v-1.704h-2.298v-2.533h-2.024zm9.34 11.14c-1.76 0-2.749-1.29-2.749-3.532 0-2.222.99-3.521 2.75-3.521 1.751 0 2.75 1.299 2.75 3.521 0 2.232-.999 3.531-2.75 3.531zm0 1.798c2.995 0 4.831-2.006 4.831-5.33 0-3.305-1.845-5.32-4.83-5.32-2.994 0-4.84 2.015-4.84 5.32 0 3.324 1.836 5.33 4.84 5.33zm5.755-.198h2.024V24.34c0-1.44 1.083-2.41 2.608-2.41.34 0 .96.066 1.12.122v-1.996c-.216-.056-.602-.085-.894-.085-1.337 0-2.467.735-2.759 1.742h-.15v-1.572h-1.95v10.254zm10.31-8.729c1.498 0 2.477 1.045 2.524 2.656h-5.179c.113-1.601 1.158-2.656 2.656-2.656zm2.515 5.96c-.377.8-1.215 1.243-2.44 1.243-1.619 0-2.664-1.139-2.73-2.937v-.113h7.241v-.706c0-3.22-1.723-5.17-4.576-5.17-2.89 0-4.727 2.081-4.727 5.358 0 3.277 1.799 5.292 4.736 5.292 2.345 0 3.983-1.13 4.445-2.966h-1.95zM43.236 6.202v6.47h2.336c1.928 0 3.044-1.188 3.044-3.255 0-2.036-1.125-3.215-3.044-3.215h-2.336zm1.004.915h1.22c1.34 0 2.134.852 2.134 2.313 0 1.485-.78 2.327-2.134 2.327h-1.22v-4.64zm7.91 4.793c-.838 0-1.309-.614-1.309-1.681 0-1.059.47-1.677 1.31-1.677.833 0 1.309.618 1.309 1.677 0 1.062-.476 1.68-1.31 1.68zm0 .856c1.426 0 2.3-.955 2.3-2.537 0-1.574-.878-2.534-2.3-2.534-1.425 0-2.304.96-2.304 2.534 0 1.582.874 2.537 2.304 2.537zm9.857-4.977h-.964l-.87 3.726h-.076L59.092 7.79h-.923l-1.005 3.726h-.072l-.874-3.726h-.977l1.345 4.883h.99l1.005-3.596h.076l1.01 3.596h.999l1.34-4.883zm1.225 4.883h.964V9.816c0-.762.475-1.237 1.25-1.237.718 0 1.068.39 1.068 1.174v2.92h.964V9.51c0-1.161-.615-1.816-1.704-1.816-.735 0-1.305.328-1.543.87h-.071V7.79h-.928v4.883zm5.874 0h.964V5.884h-.964v6.788zm4.7-.762c-.838 0-1.31-.614-1.31-1.681 0-1.059.472-1.677 1.31-1.677.834 0 1.31.618 1.31 1.677 0 1.062-.476 1.68-1.31 1.68zm0 .856c1.426 0 2.3-.955 2.3-2.537 0-1.574-.879-2.534-2.3-2.534-1.426 0-2.305.96-2.305 2.534 0 1.582.875 2.537 2.305 2.537zm5.283-.825c-.525 0-.906-.255-.906-.695 0-.43.305-.659.978-.704l1.192-.076v.408c0 .605-.538 1.067-1.264 1.067zm-.247.812c.641 0 1.175-.278 1.466-.767h.077v.686h.928V9.336c0-1.031-.69-1.64-1.915-1.64-1.107 0-1.896.537-1.995 1.376h.933c.107-.346.48-.543 1.017-.543.66 0 1 .292 1 .807v.422l-1.322.076c-1.162.072-1.816.578-1.816 1.457 0 .892.686 1.462 1.627 1.462zm5.857 0c.672 0 1.242-.318 1.533-.852h.077v.771h.923V5.884h-.964v2.681h-.072c-.264-.538-.829-.856-1.497-.856-1.233 0-2.027.977-2.027 2.52 0 1.546.785 2.524 2.027 2.524zm.273-4.179c.807 0 1.314.641 1.314 1.659 0 1.022-.502 1.655-1.314 1.655-.816 0-1.304-.624-1.304-1.66 0-1.026.493-1.654 1.304-1.654zm8.737 3.336c-.839 0-1.31-.614-1.31-1.681 0-1.059.471-1.677 1.31-1.677.834 0 1.309.618 1.309 1.677 0 1.062-.475 1.68-1.31 1.68zm0 .856c1.425 0 2.3-.955 2.3-2.537 0-1.574-.88-2.534-2.3-2.534-1.426 0-2.305.96-2.305 2.534 0 1.582.874 2.537 2.305 2.537zm3.686-.094h.964V9.816c0-.762.475-1.237 1.251-1.237.717 0 1.067.39 1.067 1.174v2.92h.964V9.51c0-1.161-.614-1.816-1.704-1.816-.735 0-1.304.328-1.542.87h-.072V7.79h-.928v4.883zm8.911-6.066v1.206h-.802v.811h.802v2.758c0 .941.426 1.318 1.498 1.318.188 0 .363-.022.515-.05v-.802c-.134.014-.21.023-.358.023-.48 0-.69-.225-.69-.736v-2.51h1.093v-.812h-1.094V6.606h-.964zm3.431 6.066h.964V9.821c0-.74.489-1.238 1.278-1.238.726 0 1.09.395 1.09 1.175v2.914h.964V9.52c0-1.161-.628-1.82-1.727-1.82-.735 0-1.3.327-1.538.874h-.076v-2.69h-.955v6.788zm7.888-4.156c.713 0 1.18.497 1.202 1.264h-2.466c.053-.762.551-1.264 1.264-1.264zm1.197 2.838c-.18.381-.578.592-1.161.592-.771 0-1.27-.543-1.3-1.4v-.053h3.448v-.336c0-1.534-.821-2.462-2.18-2.462-1.376 0-2.25.991-2.25 2.551s.856 2.52 2.255 2.52c1.116 0 1.897-.538 2.116-1.412h-.928z"/>
        <g fill="#FFF">
            <path d="M29.692 19.977c-.03-3.284 2.689-4.882 2.813-4.956-1.54-2.245-3.926-2.552-4.765-2.576-2.004-.211-3.948 1.2-4.97 1.2-1.04 0-2.613-1.18-4.308-1.145-2.18.034-4.22 1.296-5.34 3.257-2.308 3.997-.586 9.872 1.626 13.103 1.107 1.584 2.4 3.35 4.092 3.287 1.656-.067 2.275-1.055 4.273-1.055 1.98 0 2.56 1.055 4.287 1.015 1.777-.027 2.896-1.589 3.964-3.187 1.279-1.812 1.792-3.6 1.813-3.692-.041-.013-3.45-1.314-3.485-5.25M26.43 10.32c.891-1.114 1.5-2.63 1.332-4.167-1.29.057-2.902.891-3.83 1.98-.821.96-1.555 2.534-1.365 4.013 1.448.108 2.934-.73 3.864-1.827"/>
        </g>
    </g>
</svg>
