<svg xmlns="http://www.w3.org/2000/svg" width="57.043" height="49.354" viewBox="0 0 57.043 49.354">
  <g id="Compliance_With_Employment_Regulations" data-name="Compliance With Employment Regulations" transform="translate(-747.76 -765.899)">
    <g id="_17_copy_3" data-name="17 copy 3" transform="translate(782.854 793.105)">
      <g id="Group_5" data-name="Group 5" transform="translate(0 0)">
        <path id="Path_67" data-name="Path 67" d="M330.345,333.394l1.382,1.381a.691.691,0,0,0,.976,0l3.451-3.452-.977-.976-2.963,2.964-.893-.893Z" transform="translate(-324.619 -325.396)" fill="#00bea4" stroke="#33415a" stroke-width="0.05"/>
        <path id="Path_68" data-name="Path 68" d="M271.948,273.093a.69.69,0,0,0-.7,0l-6.9,4.056a.69.69,0,0,0-.327.731l.863,4.318a7.585,7.585,0,0,0,2.89,4.586l3.413,2.56a.69.69,0,0,0,.829,0l3.413-2.56a7.585,7.585,0,0,0,2.89-4.586l.864-4.318a.69.69,0,0,0-.327-.731Zm5.014,8.834a6.205,6.205,0,0,1-2.365,3.752l-3,2.25-3-2.249a6.205,6.205,0,0,1-2.365-3.752l-.767-3.836,6.131-3.6,6.131,3.6Z" transform="translate(-264.003 -272.998)" fill="#00bea4" stroke="#33415a" stroke-width="0.05"/>
        <path id="Path_69" data-name="Path 69" d="M308.143,326.9a2.762,2.762,0,1,1,0-5.524V320a4.143,4.143,0,1,0,4.143,4.143H310.9A2.765,2.765,0,0,1,308.143,326.9Z" transform="translate(-300.548 -315.943)" fill="#00bea4" stroke="#33415a" stroke-width="0.05"/>
      </g>
    </g>
    <g id="working-hours" transform="translate(747.785 765.924)">
      <g id="Group_6" data-name="Group 6" transform="translate(0 0)">
        <path id="Path_74" data-name="Path 74" d="M42.487,54.826h-.063a14.484,14.484,0,0,0-12.213,6.766h-15.6V58.14a1.975,1.975,0,0,0-1.973-1.973H8.576A1.975,1.975,0,0,0,6.6,58.14v3.453H5.97a4.3,4.3,0,0,1-4.3-4.3V50.9a4.3,4.3,0,0,1,4.3-4.3H46.5a4.3,4.3,0,0,1,4.3,4.3v4.45a.835.835,0,1,0,1.67,0V50.9a5.977,5.977,0,0,0-5.97-5.97H37.611V41.208a6.68,6.68,0,0,0-6.672-6.672H21.531a6.68,6.68,0,0,0-6.672,6.672v3.726H5.97A5.977,5.977,0,0,0,0,50.9V76.246a5.977,5.977,0,0,0,5.97,5.97H31.325a.835.835,0,0,0,0-1.67H5.97a4.3,4.3,0,0,1-4.3-4.3V61.428a5.952,5.952,0,0,0,4.3,1.835H6.6v.888a4,4,0,0,0,8,0v-.888H29.3A14.52,14.52,0,0,0,42.485,83.84h.062a14.507,14.507,0,0,0-.059-29.013ZM32.5,44.934H19.966V41.208a1.566,1.566,0,0,1,1.565-1.565h9.408A1.566,1.566,0,0,1,32.5,41.208v3.726ZM16.529,41.208a5.008,5.008,0,0,1,5-5h9.408a5.008,5.008,0,0,1,5,5v3.726H34.174V41.208a3.239,3.239,0,0,0-3.235-3.235H21.531A3.239,3.239,0,0,0,18.3,41.208v3.726H16.529ZM8.576,57.837h4.058a.3.3,0,0,1,.3.3v1.884H8.273V58.14a.3.3,0,0,1,.3-.3Zm-.3,6.313V61.693h4.663v2.457a2.331,2.331,0,0,1-4.663,0ZM42.54,82.169h-.055A12.836,12.836,0,0,1,42.432,56.5h.056a12.836,12.836,0,0,1,.053,25.673Z" transform="translate(0 -34.536)" fill="#33415a" stroke="#33415a" stroke-width="0.05"/>
      </g>
    </g>
  </g>
</svg>
