<svg xmlns="http://www.w3.org/2000/svg" width="95" height="61" viewBox="0 0 95 61">
    <g fill="none" fill-rule="nonzero">
        <g fill="#3289CE" stroke="#FFF">
            <path d="M71.224 33.234c6.287 0 11.4-5.21 11.4-11.615 0-6.407-5.113-11.619-11.4-11.619s-11.402 5.212-11.402 11.62c0 6.404 5.115 11.614 11.402 11.614zm0-20.328c4.686 0 8.497 3.909 8.497 8.713 0 4.803-3.811 8.71-8.497 8.71-4.687 0-8.499-3.907-8.499-8.71 0-4.804 3.812-8.713 8.5-8.713zM71.224 35.208c-12.816 0-23.24 10.636-23.24 23.71a1.453 1.453 0 1 0 2.903 0c0-11.472 9.123-20.804 20.337-20.804 11.213 0 20.335 9.332 20.335 20.803a1.453 1.453 0 1 0 2.904 0c-.001-13.073-10.426-23.709-23.239-23.709z"/>
        </g>
        <g fill="#33415A">
            <path stroke="#FFF" d="M4.225 57.491a1.249 1.249 0 0 1-1.242-1.254v-8.73c0-.691.557-1.254 1.242-1.254h37.967v-2.508h-11.95v-5.117h10.547v-2.509H4.225a1.249 1.249 0 0 1-1.242-1.254v-8.73c0-.692.557-1.254 1.242-1.254h49.55c.685 0 1.242.562 1.242 1.254.796-2.231.625-3.461-.512-3.69a3.692 3.692 0 0 0-.73-.073H30.242v-5.117h23.533c2.054 0 3.725-1.688 3.725-3.763v-8.73C57.5 2.689 55.83 1 53.775 1H4.225C2.17 1 .5 2.688.5 4.763v8.73c0 2.074 1.67 3.762 3.725 3.762h23.533v5.117H4.225C2.17 22.372.5 24.06.5 26.135v8.73c0 2.075 1.67 3.763 3.725 3.763h23.533v5.117H4.225C2.17 43.745.5 45.433.5 47.508v8.73C.5 58.311 2.17 60 4.225 60h42.002v-2.509H4.225zM2.983 13.492v-8.73c0-.691.557-1.253 1.242-1.253h49.55c.685 0 1.242.562 1.242 1.254v8.73c0 .691-.557 1.254-1.242 1.254H4.225a1.249 1.249 0 0 1-1.242-1.255z"/>
            <path d="M7.5 7h2v4h-2zM13.5 7h2v4h-2zM18.5 7h2v4h-2zM46.493 11A2.006 2.006 0 0 0 48.5 9c0-1.103-.9-2-2.007-2A1.998 1.998 0 0 0 44.5 9c0 1.103.894 2 1.993 2zM7.5 29h2v4h-2zM13.5 29h2v4h-2zM18.5 29h2v4h-2zM7.5 50h2v4h-2zM13.5 50h2v4h-2zM18.5 50h2v4h-2z"/>
        </g>
    </g>
</svg>
