<svg id="Enhanced_Information_Security_Privacy" data-name="Enhanced Information Security &amp; Privacy" xmlns="http://www.w3.org/2000/svg" width="66.464" height="66.464" viewBox="0 0 66.464 66.464">
  <path id="Path_5" data-name="Path 5" d="M62.894,8.991H45.873A13.4,13.4,0,0,0,33.232,0a13.241,13.241,0,0,0-6.048,1.442.974.974,0,0,0,.881,1.736,11.312,11.312,0,0,1,5.167-1.232,11.435,11.435,0,1,1-8.687,4A.974.974,0,0,0,23.066,4.68a13.361,13.361,0,0,0-2.472,4.311H3.57A3.574,3.574,0,0,0,0,12.56V62.894a3.574,3.574,0,0,0,3.57,3.57H62.894a3.574,3.574,0,0,0,3.57-3.57V12.561A3.574,3.574,0,0,0,62.894,8.991Zm0,1.947a1.624,1.624,0,0,1,1.623,1.623V19.8H44.973a13.427,13.427,0,0,0,1.416-8.859Zm-59.324,0H20.077A13.413,13.413,0,0,0,21.491,19.8H1.947V12.561A1.624,1.624,0,0,1,3.57,10.938ZM62.894,64.517H3.57a1.624,1.624,0,0,1-1.623-1.623V21.744H22.793a13.365,13.365,0,0,0,20.892-.017c.057.01,20.832.017,20.832.017V62.894A1.624,1.624,0,0,1,62.894,64.517Z" fill="#33415a"/>
  <path id="Path_16" data-name="Path 16" d="M219.164,42.1a3.466,3.466,0,0,0-3.462,3.462v2.3a2.275,2.275,0,0,0-2.033,2.259v5.024a2.274,2.274,0,0,0,2.272,2.272h6.447a2.274,2.274,0,0,0,2.272-2.272V50.119a2.275,2.275,0,0,0-2.033-2.259v-2.3A3.466,3.466,0,0,0,219.164,42.1Zm-1.515,3.462a1.516,1.516,0,0,1,3.03,0v2.284h-3.03Zm5.063,9.58a.325.325,0,0,1-.325.325h-6.447a.325.325,0,0,1-.325-.325V50.119a.325.325,0,0,1,.325-.325h6.447a.325.325,0,0,1,.325.325Z" transform="translate(-185.932 -36.637)" fill="#00bea4"/>
  <path id="Path_17" data-name="Path 17" d="M150.805,285.69a.974.974,0,0,0-.974-.974h-35.01a.974.974,0,0,0,0,1.947h35.01A.974.974,0,0,0,150.805,285.69Z" transform="translate(-99.095 -255.938)" fill="#33415a"/>
  <path id="Path_33" data-name="Path 33" d="M150.805,285.69a.974.974,0,0,0-.974-.974h-35.01a.974.974,0,0,0,0,1.947h35.01A.974.974,0,0,0,150.805,285.69Z" transform="translate(-99.095 -235.055)" fill="#33415a"/>
  <path id="Path_28" data-name="Path 28" d="M150.805,285.69a.974.974,0,0,0-.974-.974h-35.01a.974.974,0,0,0,0,1.947h35.01A.974.974,0,0,0,150.805,285.69Z" transform="translate(-99.095 -242.016)" fill="#33415a"/>
  <path id="Path_27" data-name="Path 27" d="M150.805,285.69a.974.974,0,0,0-.974-.974h-35.01a.974.974,0,0,0,0,1.947h35.01A.974.974,0,0,0,150.805,285.69Z" transform="translate(-99.095 -248.977)" fill="#33415a"/>
  <path id="Path_32" data-name="Path 32" d="M150.805,285.69a.974.974,0,0,0-.974-.974h-35.01a.974.974,0,0,0,0,1.947h35.01A.974.974,0,0,0,150.805,285.69Z" transform="translate(-99.095 -228.094)" fill="#33415a"/>
  <path id="Path_18" data-name="Path 18" d="M249.7,115.716a.974.974,0,0,0,0,1.947A.974.974,0,0,0,249.7,115.716Z" transform="translate(-216.463 -100.695)" fill="#00bea4"/>
</svg>
