<svg xmlns="http://www.w3.org/2000/svg" width="57" height="60" viewBox="0 0 57 60">
    <g fill="none" fill-rule="evenodd">
        <path stroke="#33415A" stroke-width="1.558" d="M46.447 37.355V26.37c0-7.92-6.503-14.37-14.487-14.37h-5.859c-7.983 0-14.486 6.45-14.486 14.37v11.176c0 2.81-1.095 5.429-3.09 7.409l-1.16 1.15C5.886 47.572 6.916 50 8.976 50h40.37c2.124 0 3.09-2.555 1.609-3.96l-1.095-1.022a10.369 10.369 0 0 1-3.412-7.663zM35.667 52c0 3.874-2.903 7-6.5 7s-6.5-3.126-6.5-7"/>
        <path stroke="#3289CE" stroke-width="1.558" d="M29.167 8c-1.951 0-3.5-1.55-3.5-3.5s1.549-3.5 3.5-3.5c1.95 0 3.5 1.55 3.5 3.5s-1.55 3.5-3.5 3.5z"/>
        <path stroke="#3289CE" stroke-linecap="round" stroke-width="1.913" d="M1.667 19A16.69 16.69 0 0 1 16.409 4h.258M55.667 19c-.776-7.857-6.918-14.156-14.742-15h-.258"/>
    </g>
</svg>
