<svg xmlns="http://www.w3.org/2000/svg" xmlns:xlink="http://www.w3.org/1999/xlink" width="133" height="40" viewBox="0 0 133 40">
    <defs>
        <linearGradient id="b" x1="50%" x2="50%" y1="0%" y2="38.913%">
            <stop offset="0%" stop-color="#FBDA09"/>
            <stop offset="100%" stop-color="#FFBC00"/>
        </linearGradient>
        <path id="a" d="M11.025 3.765c.577-1.011 1.518-1.001 2.09 0L24.77 24.207c.577 1.011.098 1.831-1.067 1.831H.437c-1.166 0-1.638-.83-1.067-1.831L11.025 3.765z"/>
        <linearGradient id="c" x1="37.578%" x2="54.797%" y1="58.476%" y2="39.083%">
            <stop offset="0%" stop-color="#01E2FF"/>
            <stop offset="100%" stop-color="#01C4FF"/>
        </linearGradient>
        <linearGradient id="e" x1="20.281%" x2="83.82%" y1="32.344%" y2="69.854%">
            <stop offset="0%" stop-color="#28D781"/>
            <stop offset="100%" stop-color="#02F076"/>
        </linearGradient>
        <linearGradient id="f" x1="74.488%" x2="10.108%" y1="35.095%" y2="68.847%">
            <stop offset="0%" stop-color="#F2414E"/>
            <stop offset="100%" stop-color="#E02554"/>
        </linearGradient>
    </defs>
    <g fill="none" fill-rule="evenodd">
        <g stroke-linejoin="square">
            <rect width="132.328" height="38.708" x=".336" y=".336" fill="#000" stroke="#A6A6A6" stroke-width=".672" rx="3.362"/>
            <rect width="132.5" height="38.881" x=".25" y=".25" stroke="#8F8F8F" stroke-width=".5" rx="3.362"/>
        </g>
        <g fill="#FFF">
            <path d="M70.48 6.635a3.224 3.224 0 0 1 3.22 3.228 3.224 3.224 0 0 1-3.22 3.228 3.224 3.224 0 0 1-3.22-3.228 3.224 3.224 0 0 1 3.22-3.228zm0 .987a2.239 2.239 0 0 0-2.236 2.241 2.239 2.239 0 0 0 2.236 2.242 2.239 2.239 0 0 0 2.236-2.242 2.239 2.239 0 0 0-2.236-2.241zM51.25 6.904v.718h-2.595v1.882h2.327v.718h-2.327v1.972h2.595v.718h-3.578V6.904h3.578zM56.259 6.904v.718h-1.521v5.29h-.983l-.001-5.29h-1.52v-.718h4.025zM65.024 6.904v.718h-1.52v5.29h-.984v-5.29H61v-.718h4.024zM59.121 6.904h1v6.008h-1zM75.488 8.223v4.689h-.983V6.904h1.163L78.35 11.3l.001-4.395h.984v6.008h-.984l-2.863-4.689zM43.986 9.61h2.694l-.027.854h-2.667z"/>
            <path d="M43.946 6.725c.912 0 1.68.32 2.204.874l-.617.616c-.385-.393-.93-.609-1.56-.609a2.282 2.282 0 0 0-2.28 2.284 2.282 2.282 0 0 0 2.28 2.284c1.26 0 2.153-.73 2.151-2.284.002-.096 0-.19-.006-.281h.787v.032c.296 2.177-1.184 3.43-2.959 3.414a3.164 3.164 0 0 1-3.16-3.165 3.163 3.163 0 0 1 3.16-3.165z"/>
        </g>
        <g fill="#FFF">
            <path d="M101.668 17.664s2.919.498 2.919 3.859c0 3.36-2.92 3.858-2.92 3.858h-5.07v-7.717h5.07zm-.64 1.867h-3.447v4.14h3.448c.1-.002 1.56-.07 1.56-2.07 0-2.07-1.566-2.07-1.566-2.07z"/>
            <path d="M96.15 17.664h1.789v12.553H96.15zM105.631 17.664h1.79v12.553h-1.79zM112.198 21.879c3.022 0 3.608 2.03 3.64 2.81V30.213h-1.788v-.895c-.492.408-1.28.792-2.525.87-2.77.173-2.85-2.286-2.851-2.585v-.043c-.007-.288-.068-2.29 2.126-2.617 1.607-.24 2.731.16 3.25.413v-.369c-.127-.488-.523-1.386-1.709-1.386-1.629 0-1.988.883-1.988.883l-1.49-.883s.834-1.723 3.335-1.723zm-1.842 5.762c-.12 1.94 3.306 1.009 3.612-.367a3.28 3.28 0 0 0-.046-.643s-3.446-.931-3.566 1.01zM117.795 22.148l2.294 5.464 2.277-5.421h1.789l-4.84 11.523h-1.788l1.668-3.973-3.189-7.593h1.789zM88.362 21.879c2.823 0 3.683 2.837 3.775 3.17l.008.033-5.657 2.344s.365 1.296 2.066 1.305c1.332.007 2.084-1.183 2.084-1.183l1.435.974s-1.158 1.878-3.53 1.878c-2.915 0-4.2-2.555-4.2-4.215 0-1.599 1.02-4.306 4.019-4.306zm-.173 1.653c-2.309.424-2.018 2.45-2.018 2.45l3.822-1.564s-.712-1.086-1.804-.886zM81.66 17.664h1.892V30.19H81.66zM76.29 21.88c1.581-.045 2.342 1.053 2.342 1.053v-.782l1.75.015v7.904c0 2.02-1.2 4.151-4.024 4.151-2.823 0-3.735-2.508-3.735-2.508l1.607-.677s.49 1.545 2.212 1.545c1.961 0 2.19-1.788 2.19-2.4v-.858s-.678 1.064-2.364 1.064c-1.827 0-3.999-1.57-3.999-4.245 0-2.676 2.045-4.206 4.02-4.262zm.127 1.668c-1.275 0-2.31 1.171-2.31 2.617 0 1.445 1.035 2.616 2.31 2.616 1.276 0 2.31-1.171 2.31-2.616 0-1.446-1.034-2.617-2.31-2.617zM67.225 21.879a4.259 4.259 0 1 1 0 8.517 4.259 4.259 0 0 1 0-8.517zm-.028 1.67c-1.322 0-2.393 1.159-2.393 2.589s1.071 2.589 2.393 2.589c1.322 0 2.394-1.16 2.394-2.59s-1.072-2.588-2.394-2.588zM58.013 21.879a4.259 4.259 0 1 1-.001 8.517 4.259 4.259 0 0 1 0-8.517zm-.028 1.67c-1.322 0-2.394 1.159-2.394 2.589s1.072 2.589 2.394 2.589 2.393-1.16 2.393-2.59-1.071-2.588-2.393-2.588z"/>
            <g>
                <path d="M47.018 23.229h5.621l-.055 1.781h-5.566z"/>
                <path d="M46.934 17.216c1.904 0 3.505.665 4.599 1.82l-1.287 1.287c-.802-.82-1.942-1.27-3.256-1.27a4.76 4.76 0 0 0 0 9.52c2.628 0 4.494-1.52 4.49-4.76.005-.2 0-.396-.013-.585h1.642v.067c.618 4.537-2.471 7.15-6.175 7.116a6.597 6.597 0 1 1 0-13.195z"/>
            </g>
        </g>
        <g transform="translate(9.75 5.66)">
            <mask id="d" fill="#fff">
                <use xlink:href="#a"/>
            </mask>
            <use fill="url(#b)" transform="rotate(90 12.07 13.986)" xlink:href="#a"/>
            <path fill="url(#c)" d="M0 1.324l12.503 12.458-12.664 12.95z" mask="url(#d)"/>
            <path fill="url(#e)" d="M-2.571-1.24l15.072 15.026L16.982 9.5z" mask="url(#d)"/>
            <path fill="url(#f)" d="M12.503 13.783l6.86 6.932-20.494 6.932z" mask="url(#d)"/>
        </g>
    </g>
</svg>
