<?xml version="1.0" encoding="UTF-8"?>
<svg width="31px" height="26px" viewBox="0 0 31 26" version="1.1" xmlns="http://www.w3.org/2000/svg" xmlns:xlink="http://www.w3.org/1999/xlink">
    <!-- Generator: sketchtool 58 (101010) - https://sketch.com -->
    <title>53CA566A-5760-437C-B6A2-B38C392E8078</title>
    <desc>Created with sketchtool.</desc>
    <g id="HR-Software" stroke="none" stroke-width="1" fill="none" fill-rule="evenodd">
        <g id="HR-software.a" transform="translate(-50.000000, -897.000000)" fill-rule="nonzero">
            <g id="Group-34" transform="translate(33.000000, 754.000000)">
                <g id="ic_Time-office" transform="translate(32.571429, 156.000000) scale(-1, 1) translate(-32.571429, -156.000000) translate(17.571429, 143.000000)">
                    <path d="M17.2115209,0.107125649 C10.1710213,0.107125649 4.46356869,5.81457824 4.46356869,12.8550778 L4.46356869,12.8550778 L1.03554794,9.42705707 L0.0357085495,10.462605 L5.39199098,15.8188874 L10.7482734,10.462605 L9.74843401,9.46276562 L5.92761922,13.2478719 C5.92761922,13.1050377 5.92761922,12.9622035 5.92761922,12.8550778 C5.92764201,8.27347826 8.68945612,4.1436965 12.9236901,2.39374882 C17.1579241,0.64380113 22.0294793,1.61882177 25.2640374,4.86361581 C28.4985955,8.10840986 29.4582193,12.9830213 27.6949021,17.2117051 C25.9315849,21.4403889 21.7930976,24.189141 17.2115209,24.174688 L17.2115209,25.60303 C24.2520204,25.60303 29.959473,19.8955774 29.959473,12.8550778 C29.959473,5.81457824 24.2520204,0.107125649 17.2115209,0.107125649 Z" id="Path" fill="#33415A"></path>
                    <polygon id="Path" fill="#F95137" points="16.1402644 7.03458425 16.1402644 14.6405053 22.4249691 14.6405053 22.4249691 13.2121633 17.5686064 13.2121633 17.5686064 7.03458425"></polygon>
                </g>
            </g>
        </g>
    </g>
</svg>