<svg xmlns="http://www.w3.org/2000/svg" width="55" height="72" viewBox="0 0 55 72">
    <g fill="none" fill-rule="nonzero" stroke="#FFF">
        <path fill="#3289CE" stroke-width=".8" d="M42.788 40.935c-1.019-2.257-3.16-3.694-5.81-3.694-1.834 0-3.566.718-4.586 1.847-1.019 1.129-1.63 2.565-1.936 4.207v.308H12.823c-.51 0-1.02.205-1.223.41-.204.206-.306.514-.306.924 0 .616.51 1.026 1.02 1.129l3.77.102v2.36c0 .206.204.41.408.41h1.733c.204 0 .408-.204.408-.41v-2.257l11.823.102v.308c.204 1.54.713 2.77 1.427 3.797 1.223 1.642 2.955 2.463 4.994 2.463h.815c2.548-.206 4.383-1.745 5.3-4.31 1.02-2.668.918-5.233-.204-7.696zm-5.707-1.231c1.63 0 2.956.82 3.567 2.257.815 1.847.917 3.797.204 5.746-.612 1.745-1.63 2.566-3.262 2.668h-.611c-1.325 0-2.344-.513-3.058-1.436-.611-.821-.917-1.847-1.02-3.181-.101-2.258.307-3.797 1.428-5.028.51-.616 1.529-1.026 2.752-1.026z"/>
        <path fill="#33415A" d="M53.796 23.677V8.9c0-4.412-3.261-7.696-7.644-7.696h-27.52c-1.63 0-3.159.616-4.28 1.745L2.732 14.34c-1.019 1.025-1.528 2.154-1.528 3.59v45.066c0 4.618 3.261 7.901 7.848 7.901h36.896c2.242 0 4.179-.82 5.606-2.257 1.427-1.437 2.242-3.386 2.242-5.644V23.677zm-2.446 39.32c0 1.641-.51 2.975-1.427 3.899-.917.923-2.344 1.539-3.873 1.539H9.052c-3.262 0-5.402-2.155-5.402-5.439v-8.414-36.651c0-.719.204-1.334.713-1.847C8.237 12.287 12.11 8.49 15.983 4.59c.713-.718 1.529-1.026 2.65-1.026h27.519c3.058 0 5.198 2.155 5.198 5.336v54.095z"/>
        <path fill="#33415A" d="M8.059 22.879v-2.566h9.275c2.14 0 2.955-.923 2.955-2.975V8h2.447v9.338c0 3.488-2.039 5.54-5.504 5.54H8.059z"/>
    </g>
</svg>
