<svg xmlns="http://www.w3.org/2000/svg" width="60" height="64" viewBox="0 0 60 64">
    <g fill="none" fill-rule="nonzero">
        <path fill="#3289CE" d="M21 9.5h30.3c.6 0 1-.4 1-1s-.4-1-1-1H21c-.6 0-1 .4-1 1 0 .5.4 1 1 1z"/>
        <path fill="#33415A" d="M23.5 28.8H5.8c-.6 0-1 .4-1 1v6.9c0 .6.4 1 1 1h17.7c.6 0 1-.4 1-1v-6.9c0-.6-.5-1-1-1zm-1 6.9H6.8v-4.9h15.7v4.9zM22.3 42.5H18c-.6 0-1 .4-1 1s.4 1 1 1h4.4c.6 0 1-.4 1-1-.1-.5-.5-1-1.1-1zM22.3 49.6H18c-.6 0-1 .4-1 1s.4 1 1 1h4.4c.6 0 1-.4 1-1s-.5-1-1.1-1zM22.3 53.6H18c-.6 0-1 .4-1 1s.4 1 1 1h4.4c.6 0 1-.4 1-1-.1-.6-.5-1-1.1-1zM11.3 42.5h-1.2v-1.2c0-.6-.4-1-1-1s-1 .4-1 1v1.2H7c-.6 0-1 .4-1 1s.4 1 1 1h1.2v1.2c0 .6.4 1 1 1s1-.4 1-1v-1.2h1.2c.6 0 1-.4 1-1-.1-.5-.5-1-1.1-1zM11.4 50.7c-.4-.4-1-.4-1.4 0l-.8.8-.8-.8c-.4-.4-1-.4-1.4 0-.4.4-.4 1 0 1.4l.8.8-.8.8c-.4.4-.4 1 0 1.4.4.4 1 .4 1.4 0l.8-.8.8.8c.4.4 1 .4 1.4 0 .4-.4.4-1 0-1.4l-.8-.8.8-.8c.4-.4.4-1.1 0-1.4z"/>
        <path fill="#33415A" d="M59.9 3c0-1.7-1.4-3-3-3H16.4c-1.7 0-3 1.4-3 3v21.2H2.5c-1.4 0-2.5 1.1-2.5 2.5v30.9c0 1.4 1.1 2.5 2.5 2.5h10.8v.9c0 1.7 1.4 3 3 3h40.5c1.7 0 3-1.4 3-3l.1-58zM2.5 58.2c-.3 0-.5-.2-.5-.5V26.8c0-.3.2-.5.5-.5H26.7c.3 0 .5.2.5.5v30.9c0 .3-.2.5-.5.5H2.5zM57.9 61c0 .6-.5 1-1 1H16.4c-.6 0-1-.5-1-1v-.8h11.4c1.4 0 2.5-1.1 2.5-2.5V26.8c0-1.4-1.1-2.5-2.5-2.5H15.3V3c0-.6.5-1 1-1h40.5c.6 0 1 .5 1 1l.2 58h-.1z"/>
        <path fill="#3289CE" d="M52.2 17.9c0-.6-.4-1-1-1H21c-.6 0-1 .4-1 1s.4 1 1 1h30.3c.5 0 .9-.5.9-1z"/>
    </g>
</svg>
