<?xml version="1.0" encoding="UTF-8"?>
<svg width="25px" height="26px" viewBox="0 0 25 26" version="1.1" xmlns="http://www.w3.org/2000/svg" xmlns:xlink="http://www.w3.org/1999/xlink">
    <!-- Generator: sketchtool 58 (101010) - https://sketch.com -->
    <title>BAD06E5C-4DA9-4453-8B69-C7F0FDC7D075</title>
    <desc>Created with sketchtool.</desc>
    <g id="HR-Software" stroke="none" stroke-width="1" fill="none" fill-rule="evenodd">
        <g id="HR-software.a" transform="translate(-53.000000, -1089.000000)" fill-rule="nonzero">
            <g id="Group-34" transform="translate(33.000000, 754.000000)">
                <g id="icon/action/assignment_24px" transform="translate(21.000000, 336.000000)">
                    <path d="M20.2274681,0.089502071 L2.32705385,0.089502071 C1.09640037,0.089502071 0.10068983,1.09640037 0.10068983,2.32705385 L0.089502071,22.4650198 L4.56460562,17.9899163 L20.2274681,17.9899163 C21.4581215,17.9899163 22.4650198,16.983018 22.4650198,15.7523645 L22.4650198,2.32705385 C22.4650198,1.09640037 21.4581215,0.089502071 20.2274681,0.089502071 Z" id="Path" stroke="#33415A" stroke-width="1.4"></path>
                    <path d="M10.438179,12.3960368 L5.40368754,12.3960368 C4.94219249,12.3960368 4.56460562,11.8925877 4.56460562,11.277261 C4.56460562,10.6619342 4.94219249,10.1584851 5.40368754,10.1584851 L10.438179,10.1584851 C10.8996741,10.1584851 11.277261,10.6619342 11.277261,11.277261 C11.277261,11.8925877 10.8996741,12.3960368 10.438179,12.3960368 Z" id="Path" fill="#F55E84"></path>
                    <path d="M14.8200513,7.92093329 L5.49691886,7.92093329 C4.98414658,7.92093329 4.56460562,7.41748414 4.56460562,6.8021574 C4.56460562,6.18683066 4.98414658,5.68338151 5.49691886,5.68338151 L14.8200513,5.68338151 C15.3328235,5.68338151 15.7523645,6.18683066 15.7523645,6.8021574 C15.7523645,7.41748414 15.3328235,7.92093329 14.8200513,7.92093329 Z" id="Path" fill="#F55E84"></path>
                </g>
            </g>
        </g>
    </g>
</svg>