<svg width="97" height="89" viewBox="0 0 97 89" fill="none" xmlns="http://www.w3.org/2000/svg">
<path d="M74.8056 48.537C74.9884 47.1457 75.0865 45.7446 75.0993 44.3414C75.0865 42.9383 74.9884 41.5372 74.8056 40.1459L83.889 33.0345C84.2991 32.7212 84.5794 32.2676 84.6762 31.7606C84.7729 31.2536 84.6794 30.7288 84.4134 30.2864L75.8126 15.3713C75.5635 14.924 75.1593 14.5831 74.6763 14.4131C74.1933 14.2431 73.6648 14.2556 73.1904 14.4483L62.4708 18.7697C60.2402 17.0673 57.801 15.6574 55.2125 14.5742L53.5973 3.18333C53.526 2.67928 53.2739 2.21834 52.888 1.88642C52.502 1.5545 52.0085 1.37424 51.4995 1.37925H34.2559C33.7469 1.37424 33.2534 1.5545 32.8674 1.88642C32.4815 2.21834 32.2294 2.67928 32.1581 3.18333L30.5428 14.5742C27.951 15.6506 25.511 17.0611 23.2846 18.7697L12.5231 14.4483C12.0486 14.2556 11.5201 14.2431 11.0371 14.4131C10.5541 14.5831 10.15 14.924 9.90086 15.3713L1.30003 30.2864C1.03406 30.7288 0.940497 31.2536 1.03725 31.7606C1.13401 32.2676 1.41429 32.7212 1.82447 33.0345L10.8868 40.1459C10.7048 41.5373 10.6067 42.9383 10.5931 44.3414C10.606 45.7446 10.7041 47.1457 10.8868 48.537L1.82447 55.6484C1.41429 55.9617 1.13401 56.4152 1.03725 56.9222C0.940497 57.4292 1.03406 57.9541 1.30003 58.3964L9.90086 73.3115C10.15 73.7589 10.5541 74.0997 11.0371 74.2698C11.5201 74.4398 12.0486 74.4273 12.5231 74.2346L23.2426 69.9132C25.4732 71.6155 27.9124 73.0255 30.5009 74.1087L32.1162 85.4995C32.1874 86.0036 32.4395 86.4645 32.8255 86.7965C33.2114 87.1284 33.7049 87.3086 34.2139 87.3036H51.4156C51.9246 87.3086 52.4181 87.1284 52.8041 86.7965C53.19 86.4645 53.4421 86.0036 53.5133 85.4995M42.8567 59.4034C39.8769 59.4075 36.9627 58.5277 34.483 56.8752C32.0034 55.2227 30.0696 52.8718 28.9263 50.1199C27.7831 47.3681 27.4819 44.339 28.0607 41.4159C28.6395 38.4928 30.0723 35.807 32.1779 33.6985C34.2835 31.5899 36.9673 30.1533 39.8896 29.5705C42.8119 28.9876 45.8414 29.2846 48.5948 30.424C51.3483 31.5634 53.7019 33.4939 55.3578 35.9713C57.0138 38.4487 57.8977 41.3616 57.8977 44.3414C57.9004 46.3184 57.5134 48.2765 56.7588 50.1038C56.0041 51.9311 54.8967 53.5917 53.4997 54.9906C52.1027 56.3895 50.4437 57.4993 48.6175 58.2564C46.7913 59.0136 44.8337 59.4034 42.8567 59.4034Z" stroke="#102746" stroke-width="2" stroke-linecap="round" stroke-linejoin="round"/>
<path d="M57.5411 66.0184L70.3607 80.0035L96.0001 59.0259" stroke="#B275FF" stroke-width="1.5" stroke-linecap="round" stroke-linejoin="round"/>
</svg>
