<svg xmlns="http://www.w3.org/2000/svg" width="32" height="23" viewBox="0 0 32 23">
    <g fill="#525A6E" fill-rule="nonzero">
        <path d="M30.286 0H1.714C.768 0 0 .768 0 1.714v19.429c0 .947.768 1.714 1.714 1.714h28.572c.946 0 1.714-.767 1.714-1.714V1.714C32 .768 31.232 0 30.286 0zM1.143 1.714c0-.315.256-.571.571-.571h28.572c.315 0 .571.256.571.571V3.43H1.143V1.714zm29.714 19.429a.571.571 0 0 1-.571.571H1.714a.571.571 0 0 1-.571-.571V4.57h29.714v16.572z"/>
        <path d="M7.429 1.714a.571.571 0 1 0 0 1.143.571.571 0 0 0 0-1.143zM5.143 1.714a.571.571 0 1 0 0 1.143.571.571 0 0 0 0-1.143zM2.857 1.714a.571.571 0 1 0 0 1.143.571.571 0 0 0 0-1.143zM3.429 8h4a.571.571 0 0 0 0-1.143h-4a.571.571 0 1 0 0 1.143zM3.429 10.286h4a.571.571 0 0 0 0-1.143h-4a.571.571 0 1 0 0 1.143zM3.429 12.571h4a.571.571 0 0 0 0-1.142h-4a.571.571 0 0 0 0 1.142zM3.429 14.857h4a.571.571 0 0 0 0-1.143h-4a.571.571 0 0 0 0 1.143zM20 12.571h5.04c.17 0 .331-.075.44-.205a.571.571 0 0 0 .12-.469 6.806 6.806 0 0 0-1.714-3.428l.474-1.04h2.497a.571.571 0 0 0 0-1.143H24a.571.571 0 0 0-.514.32l-.515 1.057A6.857 6.857 0 0 0 20.114 6.4a.571.571 0 0 0-.468.12.571.571 0 0 0-.206.44V12c0 .311.249.565.56.571zm.571-4.88a5.754 5.754 0 0 1 3.738 3.738H20.57V7.69z"/>
        <path d="M13.469 17.463l-.68 1.394h-2.503a.571.571 0 1 0 0 1.143h2.857a.571.571 0 0 0 .514-.32l.68-1.394A6.857 6.857 0 0 0 25.6 14.389a.571.571 0 0 0-.12-.469.571.571 0 0 0-.44-.206h-6.754V6.96a.571.571 0 0 0-.206-.44.571.571 0 0 0-.469-.12 6.857 6.857 0 0 0-4.108 11.017l-.034.046zm3.674-9.772v6.595c0 .315.256.571.571.571h6.595a5.714 5.714 0 1 1-7.166-7.166z"/>
    </g>
</svg>
