<?xml version="1.0" encoding="UTF-8"?>
<svg width="43px" height="27px" viewBox="0 0 43 27" version="1.1" xmlns="http://www.w3.org/2000/svg" xmlns:xlink="http://www.w3.org/1999/xlink">
    <!-- Generator: sketchtool 58 (101010) - https://sketch.com -->
    <title>DD36FC3C-AD8E-45FE-81CF-31C636AD5B46</title>
    <desc>Created with sketchtool.</desc>
    <g id="HR-Software" stroke="none" stroke-width="1" fill="none" fill-rule="evenodd">
        <g id="HR-software.a" transform="translate(-44.000000, -957.000000)" fill-rule="nonzero">
            <g id="Group-34" transform="translate(33.000000, 754.000000)">
                <g id="ic_Engage-Copy" transform="translate(12.000000, 203.000000)">
                    <ellipse id="Oval" stroke="#33415A" stroke-width="1.2" transform="translate(9.511689, 10.359774) rotate(-89.495647) translate(-9.511689, -10.359774) " cx="9.51168851" cy="10.3597737" rx="3.58688706" ry="3.61557769"></ellipse>
                    <path d="M18.4135192,8.53414528 C17.6147592,8.28390719 16.7319192,8.70097067 16.4796792,9.53509761 L15.6388793,12.1208911 C15.2184793,13.4137879 14.2515593,14.4147402 12.9903594,14.8735101 C12.4017994,15.0820418 11.7711995,15.2071608 11.1405995,15.2071608 L7.65127965,15.2071608 C6.17987972,15.2071608 4.79255978,15.9578751 4.03583982,17.2090655 L0.462439979,22.7560097 C1.26842981e-14,23.4650176 0.21019999,24.4242636 0.966919956,24.8830334 C1.21915994,25.0498588 1.51343993,25.1332715 1.80771992,25.1332715 C2.31219989,25.1332715 2.81667987,24.8830334 3.11095986,24.4242636 L5.84355973,20.1285098 L5.84355973,24.4659699 C5.84355973,25.0081525 6.26395971,25.4252159 6.81047969,25.4252159 L12.3177194,25.4252159 C12.8642394,25.4252159 13.2846394,25.0081525 13.2846394,24.4659699 L13.2846394,17.9180734 C13.5368794,17.8346607 13.7891194,17.7929544 14.0413594,17.7095417 C16.2274393,16.9171211 17.8669992,15.2071608 18.5816792,13.0384308 L19.4224791,10.4526373 C19.6747191,9.66021665 19.2122791,8.78438336 18.4135192,8.53414528 Z" id="Path" stroke="#33415A" stroke-width="1.2"></path>
                    <ellipse id="Oval" stroke="#33415A" stroke-width="1.2" transform="translate(31.851259, 10.370077) rotate(-0.504353) translate(-31.851259, -10.370077) " cx="31.851259" cy="10.3700775" rx="3.61557769" ry="3.58688706"></ellipse>
                    <path d="M40.9307889,22.7560097 L37.3994291,17.1256528 C36.6006691,15.8744624 35.2553892,15.1237481 33.7839892,15.1237481 L30.2946694,15.1237481 C29.6640694,15.1237481 29.0334694,14.9986291 28.4449095,14.7900974 C27.1837095,14.3313276 26.2167896,13.3303752 25.7963896,12.0374784 L24.9555896,9.45168492 C24.7033496,8.65926432 23.8205097,8.2004945 23.0217497,8.45073258 C22.2229898,8.70097067 21.7605498,9.57680396 22.0127898,10.3692246 L22.8535897,12.9550181 C23.5682697,15.1237481 25.2078296,16.8337084 27.3939095,17.626129 C27.6461495,17.7095417 27.8983895,17.751248 28.1506295,17.8346607 L28.1506295,24.3408509 C28.1506295,24.8830334 28.5710295,25.3000969 29.1175494,25.3000969 L34.6247892,25.3000969 C35.1713092,25.3000969 35.5917091,24.8830334 35.5917091,24.3408509 L35.5917091,20.0868035 L38.324309,24.3825573 C38.618589,24.8413271 39.123069,25.0915652 39.627549,25.0915652 C39.9218289,25.0915652 40.1740689,25.0081525 40.4683489,24.8413271 C41.1830289,24.4242636 41.3932289,23.4650176 40.9307889,22.7560097 Z" id="Path" stroke="#33415A" stroke-width="1.2"></path>
                    <path d="M21.146119,1.57828524 C21.146119,0.745971671 20.6836791,0.0417063473 20.1791991,0.0417063473 C19.6747191,0.0417063473 19.2122791,0.745971671 19.2122791,1.57828524 L19.2122791,4.07522593 C19.2122791,4.90753949 19.6747191,5.61180482 20.1791991,5.61180482 C20.6836791,5.61180482 21.146119,4.90753949 21.146119,4.07522593 L21.146119,1.57828524 Z" id="Path" fill="#FFCF49"></path>
                    <path d="M15.9331592,5.10625946 C16.1013192,5.56327581 16.4376391,5.79178399 16.7739591,5.79178399 C16.9421191,5.79178399 17.110279,5.73465694 17.278439,5.62040286 C17.740879,5.27764059 17.9090389,4.42073492 17.656799,3.79233744 L16.8159991,1.85001793 C16.5637591,1.22162044 15.9331592,0.993112262 15.4707193,1.33587453 C15.0082793,1.67863679 14.8401193,2.53554246 15.0923593,3.16393995 L15.9331592,5.10625946 Z" id="Path" fill="#FFCF49"></path>
                    <path d="M23.079959,5.60330503 C23.248119,5.71792806 23.4162791,5.77523957 23.5844327,5.77523957 C23.9207591,5.77523957 24.2570791,5.54599352 24.4252392,5.08750142 L25.2239992,3.13890997 C25.4762393,2.50848332 25.3501192,1.64881062 24.8456392,1.30494155 C24.3831992,0.903760954 23.7525991,1.13300701 23.5003591,1.82074516 L22.701599,3.76933661 C22.449359,4.39976326 22.617519,5.25943595 23.079959,5.60330503 Z" id="Path" fill="#FFCF49"></path>
                </g>
            </g>
        </g>
    </g>
</svg>