<svg xmlns="http://www.w3.org/2000/svg" width="78.667" height="60.552" viewBox="0 0 78.667 60.552">
  <g id="Enhanced_Employee_Performance_Productivity" data-name="Enhanced Employee Performance &amp; Productivity" transform="translate(-938.64 -424)">
    <g id="speedometer_1_" data-name="speedometer (1)" transform="translate(938.64 424)">
      <circle id="Ellipse_2" data-name="Ellipse 2" cx="1.275" cy="1.275" r="1.275" transform="translate(33.676 40.902)" fill="#00bea4"/>
      <circle id="Ellipse_3" data-name="Ellipse 3" cx="1.275" cy="1.275" r="1.275" transform="translate(29.001 29.001)" fill="#33415a"/>
      <circle id="Ellipse_4" data-name="Ellipse 4" cx="1.275" cy="1.275" r="1.275" transform="translate(29.001 40.902)" fill="#00bea4"/>
      <circle id="Ellipse_5" data-name="Ellipse 5" cx="1.275" cy="1.275" r="1.275" transform="translate(24.325 40.902)" fill="#00bea4"/>
      <path id="Path_46" data-name="Path 46" d="M30.276,0C13.951,0,0,13.921,0,30.276v2.365a1.183,1.183,0,0,0,1.183,1.183H5.7a24.637,24.637,0,0,0,1.53,5.664L3.921,41.395a1.183,1.183,0,0,0-.433,1.616l2.365,4.1a1.183,1.183,0,0,0,1.615.433l3.313-1.912a24.921,24.921,0,0,0,4.142,4.142l-1.912,3.313a1.183,1.183,0,0,0,.433,1.615l4.1,2.365a1.183,1.183,0,0,0,1.616-.433l1.908-3.305a24.632,24.632,0,0,0,5.664,1.53v4.512a1.183,1.183,0,0,0,1.183,1.183h4.731a1.183,1.183,0,0,0,1.183-1.183V54.856a24.637,24.637,0,0,0,5.664-1.53L41.4,56.631a1.183,1.183,0,0,0,1.616.433l4.1-2.365a1.183,1.183,0,0,0,.433-1.615L45.628,49.77a24.922,24.922,0,0,0,4.142-4.142l3.313,1.912a1.183,1.183,0,0,0,1.616-.433l2.365-4.1a1.183,1.183,0,0,0-.433-1.616l-3.305-1.908a24.631,24.631,0,0,0,1.53-5.664h4.512a1.183,1.183,0,0,0,1.183-1.183V30.275C60.552,13.966,46.642,0,30.276,0ZM5.66,17.429,9.2,19.473a1.183,1.183,0,0,0,1.183-2.048L6.87,15.4A29.329,29.329,0,0,1,15.4,6.878l2.024,3.5A1.183,1.183,0,0,0,19.473,9.2L17.435,5.669A27.147,27.147,0,0,1,29.093,2.393V6.623a1.183,1.183,0,1,0,2.365,0V2.393A27.147,27.147,0,0,1,43.117,5.669L41.078,9.2a1.183,1.183,0,1,0,2.048,1.183l2.023-3.5A29.327,29.327,0,0,1,53.681,15.4l-3.512,2.028a1.183,1.183,0,0,0,1.183,2.048l3.54-2.044a27.287,27.287,0,0,1,3.053,9.3H50.066a20.107,20.107,0,0,0-39.582,0H2.607a27.284,27.284,0,0,1,3.053-9.3ZM58.186,31.458H53.809a1.183,1.183,0,0,0-1.177,1.066A22.293,22.293,0,0,1,50.749,39.5a1.183,1.183,0,0,0,.487,1.511l3.188,1.84L53.242,44.9l-3.194-1.844a1.183,1.183,0,0,0-1.55.332A22.58,22.58,0,0,1,43.389,48.5a1.183,1.183,0,0,0-.332,1.55L44.9,53.242l-2.048,1.183-1.84-3.188a1.183,1.183,0,0,0-1.511-.487,22.293,22.293,0,0,1-6.977,1.883,1.183,1.183,0,0,0-1.066,1.177v4.377H29.093V53.809a1.183,1.183,0,0,0-1.066-1.177,22.292,22.292,0,0,1-6.977-1.883,1.183,1.183,0,0,0-1.511.487L17.7,54.424l-2.048-1.183,1.844-3.194a1.183,1.183,0,0,0-.332-1.55,22.58,22.58,0,0,1-5.108-5.108,1.182,1.182,0,0,0-1.55-.332L7.31,44.9,6.127,42.852l3.188-1.84A1.183,1.183,0,0,0,9.8,39.5a22.292,22.292,0,0,1-1.883-6.977,1.182,1.182,0,0,0-1.177-1.066H2.365V30.276q0-.591.027-1.184h7.814c-.023.395-.035.79-.035,1.184a20.111,20.111,0,0,0,29.8,17.616,1.183,1.183,0,1,0-1.142-2.071A17.742,17.742,0,1,1,41.8,16.789l-10.458,7.67a5.91,5.91,0,1,0,4.749,4.749l7.669-10.457A17.749,17.749,0,0,1,45.82,38.831a1.183,1.183,0,0,0,2.071,1.142,20.125,20.125,0,0,0,2.489-9.7c0-.394-.013-.789-.035-1.183h7.814c.018.393.027.788.027,1.183v1.183Zm-24.5-2.179a3.544,3.544,0,1,1-2.41-2.41,1.182,1.182,0,0,0,1.031-.182L38.155,22.4l-4.292,5.852a1.183,1.183,0,0,0-.181,1.031Z" transform="translate(0 0)" fill="#33415a"/>
      <circle id="Ellipse_6" data-name="Ellipse 6" cx="1.063" cy="1.063" r="1.063" transform="translate(42.602 42.602)" fill="#00bea4"/>
    </g>
    <g id="user_2_" data-name="user (2)" transform="translate(991.893 459.138)">
      <g id="Group_4" data-name="Group 4" transform="translate(0)">
        <path id="Path_47" data-name="Path 47" d="M21.692,16.429A12.658,12.658,0,0,0,16.864,13.4a7.346,7.346,0,1,0-8.313,0A12.727,12.727,0,0,0,0,25.414H1.985a10.722,10.722,0,1,1,21.443,0h1.985A12.624,12.624,0,0,0,21.692,16.429Zm-8.985-3.722a5.361,5.361,0,1,1,5.361-5.361A5.367,5.367,0,0,1,12.707,12.707Z" transform="translate(0)" fill="#00bea4"/>
      </g>
    </g>
  </g>
</svg>
