<svg width="102" height="102" viewBox="0 0 102 102" fill="none" xmlns="http://www.w3.org/2000/svg">
<circle cx="51" cy="51" r="51" fill="white"/>
<g clip-path="url(#clip0_9_3)">
<path d="M78.0388 58.7264C77.6156 58.7264 77.2654 58.3768 77.2654 57.9545C77.2654 57.5321 77.6156 57.1826 78.0388 57.1826C79.9211 57.1826 81.4679 55.6533 81.4679 53.7599V46.1719C81.4679 45.0068 80.9426 43.8999 80.0379 43.1571L76.492 40.2588C76.1564 39.9966 76.1126 39.5014 76.3899 39.181C76.6671 38.8606 77.1487 38.8023 77.4697 39.0791L81.0009 41.9774C82.2704 43.0114 82.9854 44.5407 82.9854 46.1719V53.7599C82.9854 56.498 80.7529 58.7264 78.0096 58.7264H78.0388Z" fill="#102746"/>
<path d="M74.2011 78.9999H73.0483C72.6252 78.9999 72.275 78.6503 72.275 78.2279C72.275 77.8056 72.6252 77.456 73.0483 77.456H74.2011C75.7916 77.456 77.0903 76.1598 77.0903 74.5723V47.3078C77.0757 46.8854 77.4113 46.5359 77.8345 46.5359C78.2576 46.5359 78.6078 46.8709 78.6078 47.3078V49.7983L78.6224 74.5869C78.6224 77.0191 76.6379 79.0144 74.2011 79.0144V78.9999Z" fill="#102746"/>
<path d="M66.8905 79C64.4537 79 62.4692 77.0193 62.4692 74.5725V65.4989C62.4692 65.0765 62.8194 64.7269 63.2426 64.7269C63.6657 64.7269 64.0159 65.0765 64.0159 65.4989V74.5725C64.0159 76.16 65.3146 77.4562 66.9051 77.4562C68.4957 77.4562 69.7943 76.16 69.7943 74.5725V60.11C69.7943 59.6877 70.1445 59.3381 70.5677 59.3381C70.9909 59.3381 71.3411 59.6877 71.3411 60.11V74.5725C71.3411 77.0047 69.3566 79 66.9197 79H66.8905Z" fill="#102746"/>
<path d="M70.5385 39.2101C66.0588 39.2101 62.4254 35.569 62.4254 31.0977C62.4254 26.6264 66.0734 22.9854 70.5385 22.9854C75.0036 22.9854 78.6516 26.6264 78.6516 31.0977C78.6516 35.569 75.0036 39.2101 70.5385 39.2101ZM70.5385 24.5437C66.9052 24.5437 63.9576 27.4857 63.9576 31.1123C63.9576 34.7388 66.9052 37.6808 70.5385 37.6808C74.1719 37.6808 77.1195 34.7388 77.1195 31.1123C77.1195 27.4857 74.1719 24.5437 70.5385 24.5437Z" fill="#102746"/>
<path d="M31.9576 26.6992C31.155 26.6992 30.3963 26.9177 29.7542 27.2964C31.0675 28.0537 31.9576 29.481 31.9576 31.1122C31.9576 32.7434 31.0675 34.1562 29.7542 34.9281C30.4108 35.3068 31.155 35.5252 31.9576 35.5252C34.3944 35.5252 36.3789 33.5445 36.3789 31.1122C36.3789 28.68 34.3944 26.6992 31.9576 26.6992Z" fill="#00BFA5"/>
<path d="M71.0346 26.6992C70.2321 26.6992 69.4733 26.9177 68.8313 27.2964C70.1445 28.0537 71.0346 29.481 71.0346 31.1122C71.0346 32.7434 70.1445 34.1562 68.8313 34.9281C69.4879 35.3068 70.2321 35.5252 71.0346 35.5252C73.4715 35.5252 75.456 33.5445 75.456 31.1122C75.456 28.68 73.4715 26.6992 71.0346 26.6992Z" fill="#00BFA5"/>
<path d="M23.9758 58.7264C21.2326 58.7264 19 56.4981 19 53.76V46.1719C19 44.5407 19.7296 43.0115 20.9845 41.9774L24.5157 39.0791C24.8513 38.8169 25.3329 38.8606 25.5955 39.1811C25.8728 39.516 25.8144 39.9967 25.4934 40.2588L21.9622 43.1571C21.0575 43.8999 20.5321 44.9922 20.5321 46.1719V53.76C20.5321 55.6388 22.0643 57.1826 23.9612 57.1826C24.3844 57.1826 24.7346 57.5322 24.7346 57.9545C24.7346 58.3769 24.3844 58.7264 23.9612 58.7264H23.9758Z" fill="#102746"/>
<path d="M35.124 78.9999H33.9713C33.5481 78.9999 33.1979 78.6503 33.1979 78.228C33.1979 77.8056 33.5481 77.4561 33.9713 77.4561H35.124C36.7146 77.4561 38.0132 76.1598 38.0132 74.5723V65.4987C38.0132 65.0764 38.3634 64.7268 38.7866 64.7268C39.2098 64.7268 39.56 65.0764 39.56 65.4987V74.5723C39.56 77.0046 37.5755 78.9999 35.1386 78.9999H35.124Z" fill="#102746"/>
<path d="M27.8135 79C25.3766 79 23.3922 77.0193 23.3922 74.5725V47.2934C23.4067 46.871 23.7569 46.5215 24.1801 46.5215C24.6033 46.5215 24.9535 46.871 24.9389 47.2934V49.7839L24.9243 74.5579C24.9243 76.1454 26.223 77.4416 27.8135 77.4416C29.404 77.4416 30.7027 76.1454 30.7027 74.5579V60.0955C30.7027 59.6731 31.0529 59.3236 31.4761 59.3236C31.8992 59.3236 32.2494 59.6731 32.2494 60.0955V74.5579C32.2494 76.9901 30.2649 78.9855 27.8281 78.9855L27.8135 79Z" fill="#102746"/>
<path d="M31.4615 39.2101C26.9818 39.2101 23.3484 35.569 23.3484 31.0978C23.3484 26.6265 26.9818 23 31.4615 23C35.9412 23 39.5892 26.6411 39.5892 31.1124C39.5892 35.5836 35.9412 39.2247 31.4615 39.2247V39.2101ZM31.4615 24.5438C27.8281 24.5438 24.8805 27.4858 24.8805 31.1124C24.8805 34.7389 27.8281 37.6809 31.4615 37.6809C35.0949 37.6809 38.0424 34.7389 38.0424 31.1124C38.0424 27.4858 35.0949 24.5438 31.4615 24.5438Z" fill="#102746"/>
<path d="M60.7036 53.8913C60.4847 53.8913 60.2658 53.8039 60.1199 53.6145L58.3105 51.4881C58.0333 51.1677 58.0771 50.6725 58.3981 50.3958C58.7191 50.1191 59.2152 50.1628 59.4925 50.4832L60.8057 52.027L62.3525 50.7162C62.6735 50.4395 63.1696 50.4832 63.4469 50.8036C63.7241 51.124 63.6803 51.6192 63.3593 51.8959L61.2289 53.7019C61.083 53.8184 60.9079 53.8913 60.7328 53.8913H60.7036Z" fill="#102746"/>
<path d="M39.166 54.328C38.9909 54.328 38.8158 54.2698 38.6844 54.1533C38.3488 53.8765 38.3051 53.3959 38.5823 53.0609L40.3625 50.9054C40.4938 50.7452 40.6835 50.6433 40.8878 50.6287C41.0921 50.5996 41.2964 50.6724 41.4569 50.8035L43.6165 52.5803C43.9521 52.857 43.9959 53.3377 43.7186 53.6726C43.4414 53.9931 42.9599 54.0513 42.6388 53.7746L41.0629 52.4929L39.7788 54.0659C39.6329 54.2552 39.3994 54.3426 39.1806 54.3426L39.166 54.328Z" fill="#102746"/>
<path d="M60.7036 49.9734C60.3388 49.9734 60.0178 49.7112 59.9448 49.3325C59.1423 44.9341 55.3046 41.7299 50.8103 41.7299C46.316 41.7299 42.7264 44.6865 41.7633 48.9247C41.6612 49.3471 41.2526 49.5947 40.844 49.5073C40.4355 49.4054 40.1728 48.9976 40.2604 48.5898C41.3839 43.6524 45.7323 40.2007 50.8103 40.2007C55.8883 40.2007 60.5285 43.9292 61.4624 49.0704C61.5353 49.4927 61.2581 49.886 60.8349 49.9588C60.7911 49.9588 60.7474 49.9588 60.7036 49.9588V49.9734Z" fill="#102746"/>
<path d="M50.8103 61.7995C46.6225 61.7995 42.7556 59.3381 40.99 55.5514C40.8149 55.1727 40.99 54.7067 41.3694 54.5319C41.7634 54.3571 42.2157 54.5319 42.3908 54.9106C43.9084 58.173 47.2207 60.2702 50.8103 60.2702C54.3999 60.2702 57.5956 58.2749 59.1569 55.0562C59.3466 54.6775 59.7989 54.5173 60.1929 54.7067C60.5723 54.896 60.7328 55.3475 60.5431 55.7407C58.7191 59.4983 54.9836 61.8286 50.8103 61.8286V61.7995Z" fill="#102746"/>
<path d="M51 67.7856C41.7342 67.7856 34.1902 60.2558 34.1902 51.0074C34.1902 41.759 41.7342 34.2292 51 34.2292C60.2659 34.2292 67.8099 41.759 67.8099 51.0074C67.8099 60.2558 60.2659 67.7856 51 67.7856ZM51 35.7585C42.5805 35.7585 35.7369 42.5892 35.7369 50.9928C35.7369 59.3965 42.5805 66.2272 51 66.2272C59.4195 66.2272 66.2631 59.3965 66.2631 50.9928C66.2631 42.5892 59.4195 35.7585 51 35.7585Z" fill="#102746"/>
</g>
<defs>
<clipPath id="clip0_9_3">
<rect width="64" height="56" fill="white" transform="translate(19 23)"/>
</clipPath>
</defs>
</svg>
