<?xml version="1.0" encoding="UTF-8"?>
<svg width="38px" height="20px" viewBox="0 0 38 20" version="1.1" xmlns="http://www.w3.org/2000/svg" xmlns:xlink="http://www.w3.org/1999/xlink">
    <!-- Generator: sketchtool 58 (101010) - https://sketch.com -->
    <title>1DE2673C-5552-4599-AD19-6A39DC931035</title>
    <desc>Created with sketchtool.</desc>
    <g id="HR-Software" stroke="none" stroke-width="1" fill="none" fill-rule="evenodd">
        <g id="HR-software.a" transform="translate(-46.000000, -1152.000000)" fill-rule="nonzero">
            <g id="Group-34" transform="translate(33.000000, 754.000000)">
                <g id="noun_Add-Ticket_1532081" transform="translate(14.000000, 398.000000)">
                    <path d="M8.79727674,14.112661 C8.48770938,14.112661 8.234427,13.6817898 8.234427,13.1551695 L8.234427,4.68136963 C8.234427,4.1547493 8.48770938,3.72387812 8.79727674,3.72387812 C9.10684409,3.72387812 9.36012648,4.1547493 9.36012648,4.68136963 L9.36012648,13.1551695 C9.36012648,13.6817898 9.10684409,14.112661 8.79727674,14.112661 Z" id="Path" fill="#33415A"></path>
                    <path d="M17.7235853,17.5596305 L1.10111524,17.5596305 C0.574494907,17.5596305 0.143623727,17.1287593 0.143623727,16.6021389 L0.143623727,12.1498034 C0.143623727,11.6231831 0.574494907,11.1923119 1.10111524,11.1923119 C2.3458542,11.1923119 3.35122029,10.1869458 3.35122029,8.94220685 C3.35122029,7.69746789 2.3458542,6.6921018 1.10111524,6.6921018 C0.574494907,6.6921018 0.143623727,6.26123062 0.143623727,5.73461029 L0.143623727,1.28227476 C0.143623727,0.755654432 0.574494907,0.324783252 1.10111524,0.324783252 L17.9629582,0.324783252 C18.4895785,0.324783252 18.9204497,0.755654432 18.9204497,1.28227476 C18.9204497,1.8088951 18.4895785,2.23976628 17.9629582,2.23976628 L2.05860675,2.23976628 L2.05860675,4.87286793 C3.9257152,5.30373911 5.96167256,6.97934926 5.96167256,8.94220685 C5.96167256,10.9050645 3.87784062,12.5806746 2.05860675,13.0115458 L2.05860675,15.6446474 L17.7235853,15.6446474 C18.2502057,15.6446474 18.6810768,16.0755186 18.6810768,16.6021389 C18.6810768,17.1287593 18.2502057,17.5596305 17.7235853,17.5596305 Z" id="Path" stroke="#FFFFFF" stroke-width="0.5" fill="#33415A"></path>
                    <g id="Group-20" transform="translate(18.081357, 0.751107)">
                        <path d="M8.90909025,17.8594263 C4.00084145,17.8594263 -3.73034936e-14,13.8585848 -3.73034936e-14,8.95033604 C-3.73034936e-14,4.04208724 4.00084145,-4.08562073e-14 8.90909025,-4.08562073e-14 C13.817339,-4.08562073e-14 17.8181805,4.00084145 17.8181805,8.90909025 C17.8181805,13.817339 13.817339,17.8594263 8.90909025,17.8594263 Z" id="Shape" stroke="#6553C3" stroke-width="1.5"></path>
                        <path d="M9.73400601,9.73400601 L13.1161606,9.73400601 C13.5698643,9.73400601 13.9410764,9.36279392 13.9410764,8.90909025 C13.9410764,8.45538658 13.5698643,8.08417448 13.1161606,8.08417448 L9.73400601,8.08417448 L9.73400601,4.70201985 C9.73400601,4.24831618 9.36279392,3.87710409 8.90909025,3.87710409 C8.45538658,3.87710409 8.08417448,4.24831618 8.08417448,4.70201985 L8.08417448,8.08417448 L4.70201985,8.08417448 C4.24831618,8.08417448 3.87710409,8.45538658 3.87710409,8.90909025 C3.87710409,9.15656498 3.95959567,9.36279392 4.12457882,9.48653128 C4.28956197,9.61026865 4.49579091,9.73400601 4.70201985,9.73400601 L8.08417448,9.73400601 L8.08417448,13.1161606 C8.08417448,13.3636354 8.16666606,13.5698643 8.33164921,13.6936017 C8.49663237,13.817339 8.70286131,13.9410764 8.90909025,13.9410764 C9.36279392,13.9410764 9.73400601,13.5698643 9.73400601,13.1161606 L9.73400601,9.73400601 Z" id="Path" stroke="#FFFFFF" stroke-width="0.5" fill="#6553C3"></path>
                    </g>
                </g>
            </g>
        </g>
    </g>
</svg>