<svg xmlns="http://www.w3.org/2000/svg" width="97" height="54" viewBox="0 0 97 54">
    <g fill="none" fill-rule="nonzero" stroke="#FFF" stroke-width="1.2">
        <path fill="#3289CE" d="M10.68 41.988c-.306 0-.613-.153-.92-.306C4.246 37.4 1.334 32.352 1.334 27c0-5.965 3.525-11.47 10.266-16.059.767-.459 1.686-.306 2.146.459.46.765.306 1.682-.46 2.141C9.3 16.294 4.398 20.882 4.398 27c0 4.282 2.451 8.565 7.201 12.235.613.46.767 1.53.307 2.141-.307.46-.766.612-1.226.612zM61.245 2.224C53.277 1 44.543 1 36.422 2.224c-.766.152-1.379.917-1.226 1.682.153.765.766 1.376 1.532 1.376h.154c7.814-1.07 16.242-1.07 23.903 0 .766.153 1.685-.458 1.685-1.223 0-.765-.46-1.683-1.225-1.835zM86.987 41.988c-.46 0-.92-.153-1.226-.612-.46-.611-.46-1.682.306-2.14 4.75-3.671 7.202-7.954 7.202-12.236 0-5.047-3.524-10.094-9.96-14.224-.766-.458-.92-1.376-.46-2.14.46-.765 1.38-.918 2.146-.46C92.349 14.918 96.333 20.882 96.333 27c0 5.353-2.911 10.4-8.427 14.682-.307.153-.613.306-.92.306zM57.567 49.176c-5.822.612-11.798.612-17.468 0-.766 0-1.532.46-1.685 1.377-.153.765.46 1.53 1.379 1.682 2.911.306 5.976.46 9.04.46 3.065 0 6.13-.154 9.04-.46.767-.153 1.38-.764 1.38-1.682 0-.918-.766-1.53-1.686-1.377z"/>
        <path fill="#33415A" d="M71.358 20.118c-4.75 0-8.734-4.283-8.734-9.483s3.83-9.482 8.734-9.482c4.903 0 8.733 4.282 8.733 9.482 0 5.2-3.983 9.483-8.733 9.483zm0-16.06c-3.065 0-5.67 2.907-5.67 6.424 0 3.518 2.452 6.424 5.67 6.424 3.064 0 5.669-2.906 5.669-6.424 0-3.517-2.605-6.423-5.67-6.423zM79.938 53h-14.71c-2.451 0-4.443-2.141-4.443-4.741V33.576c0-3.211 1.379-6.27 3.83-8.258l1.073-.765c3.678-2.447 8.274-2.447 11.952.153 3.524 2.6 5.67 6.882 5.67 11.623v12.847C83.461 51.318 81.93 53 79.937 53zm-8.427-27.07c-1.38 0-2.912.458-4.137 1.223l-.92.612c-1.532 1.223-2.605 3.517-2.605 5.811V48.26c0 .917.613 1.682 1.38 1.682h14.71c.152 0 .459-.306.459-.612V36.482c0-3.823-1.686-7.188-4.444-9.176-1.379-.918-2.911-1.377-4.443-1.377zM24.777 20.118c-4.75 0-8.734-4.283-8.734-9.483s3.83-9.482 8.734-9.482c4.903 0 8.734 4.282 8.734 9.482 0 5.2-3.984 9.483-8.734 9.483zm0-16.06c-3.065 0-5.67 2.907-5.67 6.424 0 3.518 2.452 6.424 5.67 6.424s5.67-2.906 5.67-6.424c0-3.517-2.606-6.423-5.67-6.423zM33.358 53h-14.71c-2.452 0-4.444-2.141-4.444-4.741V33.576c0-3.211 1.38-6.27 3.83-8.258l1.074-.765c3.677-2.447 8.427-2.447 11.951.153 3.524 2.6 5.67 6.882 5.67 11.623v12.847C36.881 51.318 35.195 53 33.357 53zM24.93 25.93c-1.379 0-2.911.458-4.137 1.223l-.92.612c-1.532 1.223-2.604 3.517-2.604 5.811V48.26c0 .917.613 1.682 1.379 1.682h14.71c.153 0 .46-.306.46-.612V36.482c0-3.823-1.686-7.188-4.444-9.176-1.38-.918-2.912-1.377-4.444-1.377z"/>
    </g>
</svg>
