<svg xmlns="http://www.w3.org/2000/svg" width="61" height="49.304" viewBox="0 0 61 49.304">
  <g id="Improved_Decision-Making" data-name="Improved Decision-Making" transform="translate(-973.667 -507.267)">
    <g id="decision_1_" data-name="decision (1)" transform="translate(973.667 507.267)">
      <path id="Path_56" data-name="Path 56" d="M10.941,18.431H23.361a2.8,2.8,0,0,0,2.8-2.8V2.8a2.8,2.8,0,0,0-2.8-2.8H2.8A2.8,2.8,0,0,0,0,2.8V15.632a2.8,2.8,0,0,0,2.8,2.8H5.035a12.836,12.836,0,0,0,7.627,8.85A1.388,1.388,0,0,0,14.2,25.07a14.355,14.355,0,0,1-3.26-6.639ZM2.8,16.623a.991.991,0,0,1-.991-.991V2.8A.992.992,0,0,1,2.8,1.809H23.361a.992.992,0,0,1,.991.992V15.632a.992.992,0,0,1-.991.991H2.8Zm4.128,1.809H9.1a16.249,16.249,0,0,0,2.614,6.382,11.183,11.183,0,0,1-4.786-6.382Zm0,0" transform="translate(0 0)" fill="#33415a"/>
      <path id="Path_57" data-name="Path 57" d="M315.786,0H295.225a2.8,2.8,0,0,0-2.8,2.8v1a.9.9,0,0,0,1.809,0v-1a.992.992,0,0,1,.991-.992h20.561a.992.992,0,0,1,.992.992V15.632a.992.992,0,0,1-.992.991H295.225a.992.992,0,0,1-.991-.991V7.42a.9.9,0,0,0-1.809,0v8.212a2.8,2.8,0,0,0,2.8,2.8h12.419a14.355,14.355,0,0,1-3.26,6.639,1.388,1.388,0,0,0,1.538,2.211,12.829,12.829,0,0,0,7.626-8.85h2.237a2.8,2.8,0,0,0,2.8-2.8V2.8a2.8,2.8,0,0,0-2.8-2.8Zm-8.908,24.806a16.275,16.275,0,0,0,2.609-6.375h2.166A11.38,11.38,0,0,1,306.878,24.806Zm0,0" transform="translate(-257.586)" fill="#33415a"/>
      <path id="Path_59" data-name="Path 59" d="M365.544,48.959a.9.9,0,0,0,1.279,0l2.857-2.857,2.857,2.857a.9.9,0,0,0,1.279-1.279l-2.857-2.857,2.857-2.857a.9.9,0,0,0-1.279-1.279l-2.857,2.857-2.857-2.857a.9.9,0,1,0-1.279,1.279l2.857,2.857-2.857,2.857A.905.905,0,0,0,365.544,48.959Zm0,0" transform="translate(-321.76 -35.607)" fill="#00bea4"/>
      <path id="Path_61" data-name="Path 61" d="M254.848,413.8h0v0Zm0,0" transform="translate(-224.485 -364.5)" fill="#33415a"/>
    </g>
    <g id="user_2_" data-name="user (2)" transform="translate(991.46 528.138)">
      <g id="Group_4" data-name="Group 4" transform="translate(0)">
        <path id="Path_47" data-name="Path 47" d="M21.692,16.429A12.658,12.658,0,0,0,16.864,13.4a7.346,7.346,0,1,0-8.313,0A12.727,12.727,0,0,0,0,25.414H1.985a10.722,10.722,0,1,1,21.443,0h1.985A12.624,12.624,0,0,0,21.692,16.429Zm-8.985-3.722a5.361,5.361,0,1,1,5.361-5.361A5.367,5.367,0,0,1,12.707,12.707Z" transform="translate(0)" fill="#33415a"/>
      </g>
    </g>
    <path id="Path_62" data-name="Path 62" d="M68.107,144.214a1.365,1.365,0,0,0,.968-.4l5.476-5.476a1.369,1.369,0,1,0-1.936-1.936l-4.508,4.508-1.77-1.77a1.369,1.369,0,0,0-1.936,1.936l2.738,2.738A1.365,1.365,0,0,0,68.107,144.214Z" transform="translate(916.508 376.266)" fill="#00bea4"/>
  </g>
</svg>
