<svg width="50" height="53" viewBox="0 0 50 53" fill="none" xmlns="http://www.w3.org/2000/svg">
<g clip-path="url(#clip0_228_2886)">
<path d="M34.0927 44.8726V45.4795C34.0927 47.5378 35.7847 49.2134 37.863 49.2134H39.4751C41.5534 49.2134 43.2454 47.5378 43.2454 45.4795V44.8726L43.1921 42.8144V42.788C43.1921 41.5082 43.6984 40.2679 44.6043 39.3707C46.1497 37.8534 47.0956 35.7556 47.0956 33.4335C47.0956 28.6177 42.9923 24.7651 38.0629 25.0949C33.9462 25.372 30.5889 28.6441 30.2558 32.721C30.0426 35.2806 31.0019 37.6291 32.6539 39.2916C33.5865 40.2283 34.146 41.4686 34.146 42.788V42.8144H38.6624" stroke="#344154" stroke-width="1.2" stroke-linecap="round" stroke-linejoin="round"/>
<path d="M36.5441 49.2925V50.0314C36.5441 51.1924 37.49 52.1424 38.6757 52.1424C39.8481 52.1424 40.8074 51.2056 40.8074 50.0314V49.2793" stroke="#344154" stroke-width="1.2" stroke-linecap="round" stroke-linejoin="round"/>
<path d="M38.6757 23.1289V21.2158" stroke="#344154" stroke-width="1.2" stroke-linecap="round" stroke-linejoin="round"/>
<path d="M35.1052 23.8283L34.4524 22.0208" stroke="#344154" stroke-width="1.2" stroke-linecap="round" stroke-linejoin="round"/>
<path d="M32.0011 25.6886L30.7621 24.2241" stroke="#344154" stroke-width="1.2" stroke-linecap="round" stroke-linejoin="round"/>
<path d="M29.7229 28.4988L28.0442 27.5356" stroke="#344154" stroke-width="1.2" stroke-linecap="round" stroke-linejoin="round"/>
<path d="M42.2329 23.8283L42.899 22.0208" stroke="#344154" stroke-width="1.2" stroke-linecap="round" stroke-linejoin="round"/>
<path d="M45.3504 25.6886L46.5894 24.2241" stroke="#344154" stroke-width="1.2" stroke-linecap="round" stroke-linejoin="round"/>
<path d="M47.6285 28.4988L49.2939 27.5356" stroke="#344154" stroke-width="1.2" stroke-linecap="round" stroke-linejoin="round"/>
<path d="M4.62297 23.6963L1.97176 25.8469C1.15907 26.5066 0.69278 27.4829 0.69278 28.5253V34.1591C0.69278 35.8743 2.10498 37.2728 3.83693 37.2728" stroke="#344154" stroke-width="1.2" stroke-miterlimit="10" stroke-linecap="round"/>
<path d="M11.3243 52.3007H12.1769C13.6824 52.3007 14.9081 51.0869 14.9081 49.596V30.0294L17.3861 31.6918C18.372 32.3515 19.7309 32.048 20.3171 31.0189L23.1282 26.124C23.6877 25.1476 23.3147 23.9074 22.3155 23.3928C21.3829 22.9047 20.2238 23.2213 19.6776 24.1185L18.0522 26.9816L13.8289 23.6039" stroke="#344154" stroke-width="1.2" stroke-miterlimit="10" stroke-linecap="round"/>
<path d="M3.99681 29.3564V31.2036L3.98349 49.5959C3.98349 51.0868 5.20918 52.3007 6.71464 52.3007C8.2201 52.3007 9.44579 51.0868 9.44579 49.5959V38.8693" stroke="#344154" stroke-width="1.2" stroke-miterlimit="10" stroke-linecap="round"/>
<path d="M14.948 17.3368C14.948 20.345 12.4833 22.7727 9.4591 22.7727C6.43485 22.7727 3.97015 20.3318 3.97015 17.3368C3.97015 14.3418 6.43485 11.9009 9.4591 11.9009C12.4833 11.9009 14.948 14.3418 14.948 17.3368Z" stroke="#344154" stroke-width="1.2" stroke-miterlimit="10" stroke-linecap="round"/>
<path d="M9.44578 20.3846C7.7538 20.3846 6.38156 19.0257 6.38156 17.35C6.38156 15.6744 7.7538 14.3154 9.44578 14.3154C11.1378 14.3154 12.51 15.6744 12.51 17.35C12.51 19.0257 11.1378 20.3846 9.44578 20.3846Z" fill="#8475D6"/>
<path d="M16.7866 14.1834H20.7168L22.7152 18.3395L24.7136 14.1834H35.9979C37.2768 14.1834 38.316 13.1543 38.316 11.8877V2.99496C38.316 1.72835 37.2768 0.699219 35.9979 0.699219H11.8572C10.5782 0.699219 9.53903 1.72835 9.53903 2.99496V9.52596" stroke="#344154" stroke-width="1.2" stroke-miterlimit="10" stroke-linecap="round"/>
<path d="M20.85 6.97944C20.85 7.12458 20.7301 7.23013 20.5968 7.23013C20.4636 7.23013 20.3437 7.11138 20.3437 6.97944C20.3437 6.84751 20.4636 6.72876 20.5968 6.72876C20.7301 6.72876 20.85 6.84751 20.85 6.97944Z" stroke="#344154" stroke-width="1.2" stroke-miterlimit="10" stroke-linecap="round"/>
<path d="M24.4471 6.97944C24.4471 7.12458 24.3272 7.23013 24.194 7.23013C24.0607 7.23013 23.9408 7.11138 23.9408 6.97944C23.9408 6.84751 24.0607 6.72876 24.194 6.72876C24.3272 6.72876 24.4471 6.84751 24.4471 6.97944Z" stroke="#344154" stroke-width="1.2" stroke-miterlimit="10" stroke-linecap="round"/>
<path d="M28.0442 6.97944C28.0442 7.12458 27.9243 7.23013 27.7911 7.23013C27.6579 7.23013 27.538 7.11138 27.538 6.97944C27.538 6.84751 27.6579 6.72876 27.7911 6.72876C27.9243 6.72876 28.0442 6.84751 28.0442 6.97944Z" stroke="#344154" stroke-width="1.2" stroke-miterlimit="10" stroke-linecap="round"/>
</g>
<defs>
<clipPath id="clip0_228_2886">
<rect width="50" height="53" fill="white"/>
</clipPath>
</defs>
</svg>
