<svg xmlns="http://www.w3.org/2000/svg" width="82" height="84" viewBox="0 0 82 84">
    <g fill="none" fill-rule="nonzero" stroke="#FFF">
        <path fill="#33415A" stroke-width="2" d="M40.029 60H12.971C9.678 60 7 62.527 7 65.633v11.734C7 80.473 9.679 83 12.971 83h27.058C43.322 83 46 80.473 46 77.367V65.634C46 62.527 43.322 60 40.029 60zm1.99 17.367c0 1.035-.892 1.878-1.99 1.878H12.971c-1.098 0-1.99-.842-1.99-1.878V65.634c0-1.035.893-1.878 1.99-1.878h27.058c1.098 0 1.99.842 1.99 1.878v11.733z"/>
        <path fill="#33415A" d="M17 67h4v9h-4zM31 67h4v9h-4zM1 67h4v9H1zM48 67h4v9h-4z"/>
        <path fill="#3289CE" stroke-width="2.5" d="M65.85 2h-29.7C28.346 2 22 8.222 22 15.87V57l14.43-8.913h29.42c7.803 0 14.15-6.221 14.15-13.87V15.87C80 8.223 73.652 2 65.85 2zm9.677 32.218c0 5.23-4.34 9.486-9.677 9.486H35.137l-8.664 5.353V15.871c0-5.23 4.34-9.486 9.677-9.486h29.7c5.337 0 9.678 4.255 9.678 9.486v18.347h-.001z"/>
    </g>
</svg>
