<svg xmlns="http://www.w3.org/2000/svg" width="72" height="72" viewBox="0 0 72 72">
    <g fill="none" fill-rule="nonzero" stroke="#FFF">
        <path fill="#33415A" d="M60.589 22.027c.175-1.012.261-2.006.261-3.008C60.85 9.083 52.767 1 42.832 1c-6.985 0-13.318 4.073-16.268 10.297A12.17 12.17 0 0 0 20.6 9.75C13.845 9.75 8.35 15.245 8.35 22c0 .375.018.745.056 1.115A13.497 13.497 0 0 0 1 35.175c0 3.616 1.408 7.014 3.966 9.573a13.447 13.447 0 0 0 9.572 3.966h1.446v16.472A5.819 5.819 0 0 0 21.796 71h32.817a1.4 1.4 0 0 0 1.4-1.4V48.714h1.45C64.926 48.714 71 42.641 71 35.176c0-3.321-1.22-6.52-3.44-9.015a13.603 13.603 0 0 0-6.971-4.134zM22.753 68.2h-.957a3.016 3.016 0 0 1-3.012-3.014V26.563a3.016 3.016 0 0 1 3.012-3.013h.957V68.2zm30.46-20.92c0 .012-.007.022-.007.034 0 .012.007.022.007.034V68.2h-27.66V23.55h27.66v23.73zm4.25-1.366h-1.45V22.15a1.4 1.4 0 0 0-1.4-1.4H21.796a5.819 5.819 0 0 0-5.812 5.813v19.35h-1.446a10.666 10.666 0 0 1-7.592-3.145A10.667 10.667 0 0 1 3.8 35.176c0-4.365 2.62-8.264 6.679-9.933a1.4 1.4 0 0 0 .84-1.569 8.453 8.453 0 0 1-.169-1.673c0-5.21 4.24-9.45 9.45-9.45 2.093 0 4.084.675 5.759 1.953a1.401 1.401 0 0 0 2.167-.64C30.686 7.844 36.436 3.8 42.832 3.8c8.392 0 15.218 6.827 15.218 15.219 0 1.247-.16 2.486-.49 3.787a1.4 1.4 0 0 0 1.19 1.734c2.59.313 4.98 1.554 6.724 3.489a10.739 10.739 0 0 1 2.726 7.147c0 5.921-4.817 10.738-10.738 10.738z"/>
        <path fill="#3289CE" d="M31.42 56c.786 0 1.42-.633 1.42-1.415 0-3.658 2.987-6.634 6.66-6.634 3.671 0 6.66 2.976 6.66 6.634 0 .782.634 1.415 1.42 1.415.785 0 1.42-.633 1.42-1.415 0-3.683-2.127-6.874-5.218-8.437a5.939 5.939 0 0 0 1.717-4.173c0-3.294-2.691-5.975-6-5.975-3.307 0-5.998 2.68-5.998 5.975a5.94 5.94 0 0 0 1.717 4.173C32.128 47.711 30 50.902 30 54.585c0 .782.635 1.415 1.42 1.415zm8.08-17.17a3.155 3.155 0 0 1 3.158 3.145 3.155 3.155 0 0 1-3.159 3.146 3.155 3.155 0 0 1-3.157-3.146A3.155 3.155 0 0 1 39.5 38.83z"/>
    </g>
</svg>
