<svg xmlns="http://www.w3.org/2000/svg" width="72" height="72" viewBox="0 0 72 72">
    <g fill="none" fill-rule="nonzero">
        <path fill="#33415A" stroke="#FFF" stroke-width=".5" d="M45 26.6c0-2-1.6-3.6-3.6-3.6H30.6c-2 0-3.6 1.6-3.6 3.6v10.7c0 2 1.6 3.6 3.6 3.6h10.7c2 0 3.6-1.6 3.6-3.6V26.6h.1zm-2 10.8c0 .9-.7 1.6-1.6 1.6H30.6c-.9 0-1.6-.7-1.6-1.6V26.6c0-.9.7-1.6 1.6-1.6h10.7c.9 0 1.6.7 1.6 1.6v10.8h.1z"/>
        <path fill="#FFF" stroke="#FA8257" stroke-width="2" d="M23.9 25.876A2.583 2.583 0 0 0 21.4 24H10.6A2.585 2.585 0 0 0 8 26.6v10.7c0 1.448 1.152 2.6 2.6 2.6h10.7c1.448 0 2.6-1.152 2.6-2.6V25.876z"/>
        <path fill="#33415A" stroke="#FFF" stroke-width=".5" d="M65 26.6c0-2-1.6-3.6-3.6-3.6H50.6c-2 0-3.6 1.6-3.6 3.6v10.7c0 2 1.6 3.6 3.6 3.6h10.7c2 0 3.6-1.6 3.6-3.6V26.6h.1zm-2 10.8c0 .9-.7 1.6-1.6 1.6H50.6c-.9 0-1.6-.7-1.6-1.6V26.6c0-.9.7-1.6 1.6-1.6h10.7c.9 0 1.6.7 1.6 1.6v10.8h.1zM21.4 43H10.6c-2 0-3.6 1.6-3.6 3.6v10.7c0 2 1.6 3.6 3.6 3.6h10.7c2 0 3.6-1.6 3.6-3.6V46.6c.1-2-1.5-3.6-3.5-3.6zM23 57.4c0 .9-.7 1.6-1.6 1.6H10.6c-.9 0-1.6-.7-1.6-1.6V46.6c0-.9.7-1.6 1.6-1.6h10.7c.9 0 1.6.7 1.6 1.6v10.8h.1zM41.4 43H30.6c-2 0-3.6 1.6-3.6 3.6v10.7c0 2 1.6 3.6 3.6 3.6h10.7c2 0 3.6-1.6 3.6-3.6V46.6c.1-2-1.5-3.6-3.5-3.6zM43 57.4c0 .9-.7 1.6-1.6 1.6H30.6c-.9 0-1.6-.7-1.6-1.6V46.6c0-.9.7-1.6 1.6-1.6h10.7c.9 0 1.6.7 1.6 1.6v10.8h.1zM61.4 43H50.6c-2 0-3.6 1.6-3.6 3.6v10.7c0 2 1.6 3.6 3.6 3.6h10.7c2 0 3.6-1.6 3.6-3.6V46.6c.1-2-1.5-3.6-3.5-3.6zM63 57.4c0 .9-.7 1.6-1.6 1.6H50.6c-.9 0-1.6-.7-1.6-1.6V46.6c0-.9.7-1.6 1.6-1.6h10.7c.9 0 1.6.7 1.6 1.6v10.8h.1zM15.5 17h2.1c1.4 0 2.5-1.1 2.5-2.5v-11C20.1 2.1 19 1 17.6 1h-2.1C14.1 1 13 2.1 13 3.5v11.1c0 1.3 1.1 2.4 2.5 2.4zM15 3.5c0-.2.2-.5.5-.5h2.1c.2 0 .5.2.5.5v11.1c0 .2-.2.5-.5.5h-2.1c-.2 0-.5-.2-.5-.5V3.5zM54.5 17h2.1c1.4 0 2.5-1.1 2.5-2.5v-11C59.1 2.1 58 1 56.6 1h-2.1C53.1 1 52 2.1 52 3.5v11.1c0 1.3 1.1 2.4 2.5 2.4zM54 3.5c0-.2.2-.5.5-.5h2.1c.2 0 .5.2.5.5v11.1c0 .2-.2.5-.5.5h-2.1c-.2 0-.5-.2-.5-.5V3.5z"/>
        <path fill="#33415A" d="M22 10h28c.6 0 1-.4 1-1s-.4-1-1-1H22c-.6 0-1 .4-1 1s.4 1 1 1z"/>
        <path fill="#33415A" stroke="#FFF" stroke-width=".5" d="M8.3 71h55.5c4 0 7.3-3.3 7.3-7.3V15.3c0-4-3.3-7.3-7.3-7.3H61c-.6 0-1 .4-1 1s.4 1 1 1h2.7c2.9 0 5.3 2.4 5.3 5.3v48.5c0 2.9-2.4 5.3-5.3 5.3H8.3c-2.9 0-5.3-2.4-5.3-5.3V15.3C3 12.4 5.4 10 8.3 10H11c.6 0 1-.4 1-1s-.4-1-1-1H8.3C4.3 8 1 11.3 1 15.3v48.5C1 67.7 4.3 71 8.3 71z"/>
    </g>
</svg>
