<svg xmlns="http://www.w3.org/2000/svg" width="90" height="63" viewBox="0 0 90 63">
    <g fill="none" fill-rule="nonzero" stroke-width="2">
        <path stroke="#3289CE" d="M22.214 45H6.786C3.59 45 1 47.537 1 50.667v5.666C1 59.463 3.59 62 6.786 62h15.428C25.41 62 28 59.463 28 56.333v-5.666C28 47.537 25.41 45 22.214 45zM53.214 45H37.786C34.59 45 32 47.537 32 50.667v5.666C32 59.463 34.59 62 37.786 62h15.428C56.41 62 59 59.463 59 56.333v-5.666C59 47.537 56.41 45 53.214 45zM83.214 45H67.786C64.59 45 62 47.537 62 50.667v5.666C62 59.463 64.59 62 67.786 62h15.428C86.41 62 89 59.463 89 56.333v-5.666C89 47.537 86.41 45 83.214 45z"/>
        <path fill="#33415A" stroke="#FFF" d="M8.925 43a1.917 1.917 0 0 0 1.925-1.91v-7.635c0-1.055.862-1.91 1.925-1.91h30.8v9.546c0 1.054.862 1.909 1.925 1.909a1.917 1.917 0 0 0 1.925-1.91v-9.545h30.8c1.063 0 1.925.855 1.925 1.91v7.636c0 1.054.862 1.909 1.925 1.909A1.917 1.917 0 0 0 84 41.09v-7.635c0-3.164-2.586-5.728-5.775-5.728h-30.8v-9.545H53.2c3.19 0 5.775-2.564 5.775-5.727V6.727C58.975 3.564 56.389 1 53.2 1H37.8c-3.19 0-5.775 2.564-5.775 5.727v5.728c0 3.163 2.586 5.727 5.775 5.727h5.775v9.545h-30.8C9.585 27.727 7 30.291 7 33.455v7.636c0 .506.203.992.564 1.35.36.358.85.559 1.361.559zm26.95-30.545V6.727c0-1.054.862-1.909 1.925-1.909h15.4c1.063 0 1.925.855 1.925 1.91v5.727c0 1.054-.862 1.909-1.925 1.909H37.8a1.917 1.917 0 0 1-1.925-1.91z"/>
    </g>
</svg>
