<svg width="102" height="102" viewBox="0 0 102 102" fill="none" xmlns="http://www.w3.org/2000/svg">
<circle cx="51" cy="51" r="51" fill="white"/>
<g clip-path="url(#clip0_9_2)">
<path d="M70.3702 52.487C61.8773 52.487 56.1222 44.149 56.0486 44.0459C54.8858 42.4549 53.7377 41.7184 52.6927 41.7773C51.0147 41.9099 49.8372 44.149 49.8372 44.1785C48.7921 46.727 47.3644 48.3917 45.6423 49.0399C44.2734 49.5554 42.7279 49.4376 41.1824 48.6716C39.8577 48.0234 39.2101 46.4913 39.6222 45.0476L41.1088 39.9506C41.8301 37.4905 43.5816 35.4723 45.9367 34.4411L51.5446 31.9662C53.8702 30.9497 56.0045 31.2591 58.3595 31.7452L72.7841 35.1629L82.9402 31.3475C83.3376 31.2002 83.7939 31.4064 83.9411 31.8041C84.0883 32.2019 83.8822 32.6586 83.4848 32.8059L72.8871 36.7981L58.021 33.2773C55.5187 32.7617 53.9144 32.6438 52.1775 33.4099L46.5696 35.8847C44.6414 36.7392 43.1989 38.3743 42.6102 40.3925L41.1235 45.4896C40.9175 46.1967 41.2413 46.9775 41.8742 47.2868C43.037 47.8613 44.1262 47.9645 45.0977 47.5962C46.4077 47.0953 47.5263 45.74 48.4389 43.5303C48.5272 43.3535 50.0285 40.4367 52.5749 40.2305C54.2087 40.1126 55.8131 41.0849 57.3292 43.162C57.7119 43.7218 66.3519 56.214 77.9946 48.3917C78.3479 48.156 78.8336 48.2444 79.0691 48.5979C79.3046 48.9515 79.2163 49.4376 78.8631 49.6733C75.8309 51.7062 72.9755 52.487 70.3702 52.487Z" fill="#102746"/>
<path d="M71.8862 60.103C71.6066 60.103 71.3416 59.9557 71.1945 59.6905C70.9884 59.3075 71.1356 58.8361 71.5036 58.6299L82.8519 52.4869C83.2346 52.2806 83.7056 52.428 83.9117 52.7962C84.1177 53.1793 83.9705 53.6507 83.6026 53.8569L72.2542 59.9999C72.1365 60.0588 72.004 60.0883 71.8862 60.0883V60.103Z" fill="#102746"/>
<path d="M70.7088 67.1448C69.5754 67.1448 68.5009 66.6881 67.6914 65.8337L56.2842 53.7097C55.9898 53.4004 56.0045 52.8995 56.3136 52.6049C56.6227 52.3103 57.1231 52.325 57.4175 52.6344L68.8247 64.7583C69.4577 65.4212 70.3555 65.7158 71.2534 65.5243C72.1512 65.3328 72.8725 64.6993 73.1668 63.8449C73.4171 63.1378 73.2846 62.3571 72.8136 61.7531L65.1597 53.8423C64.8653 53.533 64.8653 53.0468 65.1744 52.7375C65.4835 52.4428 65.9693 52.4428 66.2784 52.7522L73.9911 60.7219C74.8448 61.7973 75.0803 63.1231 74.6387 64.3605C74.153 65.7453 73.0049 66.747 71.5772 67.0564C71.2828 67.1153 70.9884 67.1448 70.7088 67.1448Z" fill="#102746"/>
<path d="M65.0125 71.2548C63.4523 71.2548 61.9657 70.6213 60.847 69.4575L51.2502 59.396C50.9558 59.0867 50.9706 58.5858 51.2797 58.2912C51.5888 57.9965 52.0892 58.0113 52.3836 58.3206L61.9804 68.3822C63.0254 69.4723 64.5268 69.9142 65.9987 69.5754C67.4411 69.2513 68.5598 68.2201 69.0013 66.8354L69.0455 66.6733C69.178 66.2608 69.6048 66.0399 70.0169 66.1577C70.4291 66.2903 70.6646 66.7175 70.5321 67.13L70.4732 67.3068C69.855 69.2218 68.3095 70.6508 66.3372 71.0927C65.8956 71.1958 65.4541 71.24 65.0125 71.24V71.2548Z" fill="#102746"/>
<path d="M58.8305 74.9522C58.7275 74.9522 58.6244 74.9522 58.5214 74.9522C57.0495 74.8786 55.6512 74.1715 54.562 72.9635L46.6137 64.1394C46.3193 63.8153 46.3488 63.3292 46.6726 63.0345C46.9964 62.7399 47.4821 62.7694 47.7765 63.0935L55.7248 71.9176C56.5196 72.8014 57.5647 73.3318 58.6097 73.3907C60.3024 73.4938 61.7301 72.5657 62.8929 70.6654C63.1137 70.2971 63.5994 70.1793 63.9674 70.4002C64.3354 70.6212 64.4532 71.1073 64.2324 71.4756C62.4955 74.304 60.4054 74.967 58.8452 74.967L58.8305 74.9522Z" fill="#102746"/>
<path d="M52.7663 76.8821C51.736 76.8821 50.7204 76.4844 49.955 75.7478L26.8461 52.4133L18.5888 50.1741C18.1767 50.0563 17.9264 49.6291 18.0442 49.2166C18.1619 48.8041 18.5888 48.5537 19.0009 48.6715L27.6704 51.0138L27.8176 51.1611L51.0589 74.6282C51.7213 75.2616 52.7074 75.4826 53.6053 75.1733C54.459 74.8786 55.0625 74.1863 55.1949 73.3171C55.2685 72.8899 55.666 72.5658 56.0781 72.61C56.5049 72.6689 56.7993 73.0077 56.7552 73.4202C56.7552 73.4202 56.7552 73.5086 56.7552 73.5233C56.5197 75.0112 55.5335 76.175 54.1057 76.6464C53.6789 76.7937 53.2226 76.8674 52.781 76.8674L52.7663 76.8821Z" fill="#102746"/>
<path d="M28.9215 65.0971C28.1267 65.0971 27.3171 64.8319 26.6548 64.2869C25.9483 63.7123 25.5214 62.9021 25.4625 61.9888C25.4036 61.0754 25.6833 60.2063 26.2868 59.5286L30.4375 54.9914C30.7319 54.682 31.2177 54.6526 31.5415 54.9472C31.8653 55.2418 31.88 55.7279 31.5856 56.052L27.4349 60.5893C27.1258 60.9428 26.9639 61.3995 27.008 61.8857C27.0522 62.3571 27.273 62.799 27.6409 63.0936C28.4799 63.786 29.7163 63.6829 30.4375 62.8727C30.7172 62.5486 31.2177 62.5191 31.5415 62.799C31.8653 63.0789 31.8947 63.5798 31.6151 63.9039C30.9086 64.6993 29.9224 65.1118 28.9362 65.1118L28.9215 65.0971Z" fill="#102746"/>
<path d="M32.4099 70.4152C31.4973 70.4152 30.5995 70.0911 29.8488 69.4576C29.054 68.78 28.583 67.8224 28.5094 66.7765C28.4358 65.7306 28.7743 64.7289 29.4514 63.9334L33.3961 59.5876C33.6904 59.2635 34.1762 59.2488 34.5 59.5287C34.8238 59.8233 34.8385 60.3094 34.5589 60.6335L30.6142 64.9646C30.2168 65.4212 30.0107 66.04 30.0549 66.6587C30.099 67.2921 30.3934 67.8519 30.8644 68.2644C31.8359 69.1041 33.2636 69.0157 34.132 68.0729L36.281 65.7306C36.5754 65.4212 37.0611 65.3918 37.3849 65.6864C37.7087 65.981 37.7235 66.4672 37.4291 66.7913L35.2801 69.1335C34.5 69.9732 33.4549 70.4152 32.3952 70.4152H32.4099Z" fill="#102746"/>
<path d="M37.7529 73.7739C36.7962 73.7739 35.8542 73.435 35.1035 72.7427C33.5433 71.2843 33.455 68.8388 34.8827 67.2773L38.1798 63.6829C38.4742 63.3588 38.9599 63.344 39.2837 63.6387C39.5928 63.9333 39.6222 64.4194 39.3279 64.7435L36.0308 68.338C35.1771 69.2808 35.236 70.7539 36.1633 71.6231C37.1053 72.4922 38.5625 72.448 39.4456 71.52L40.9028 69.9732C41.1972 69.6638 41.6976 69.6491 42.0067 69.9437C42.3158 70.2383 42.3305 70.7392 42.0362 71.0486L40.579 72.5953C39.8136 73.4056 38.7833 73.818 37.7529 73.818V73.7739Z" fill="#102746"/>
<path d="M42.8604 77.0001C41.9331 77.0001 41.0058 76.6612 40.2846 75.9689C38.8127 74.5547 38.7538 72.2124 40.1521 70.7245L42.8604 67.8519C43.1548 67.5425 43.6552 67.5278 43.9643 67.8224C44.2734 68.117 44.2881 68.6179 43.9938 68.9273L41.2855 71.7999C40.4759 72.6543 40.5054 74.0243 41.3591 74.8346C42.2128 75.6448 43.5669 75.63 44.3912 74.7756L47.2467 72.0061C47.5558 71.7115 48.0415 71.7115 48.3506 72.0209C48.645 72.3302 48.645 72.8164 48.3359 73.1257L45.4951 75.8805C44.7886 76.617 43.8171 76.9853 42.8604 76.9853V77.0001Z" fill="#102746"/>
<path d="M48.9246 34.5001C48.9246 34.5001 48.7921 34.5001 48.7332 34.4706L21.5767 27.5321C21.1646 27.429 20.9143 27.0018 21.0174 26.5893C21.1204 26.1769 21.5473 25.9264 21.9594 26.0295L49.1159 32.9827C49.5281 33.0859 49.7783 33.5131 49.6753 33.9256C49.587 34.2791 49.2631 34.5148 48.9246 34.5148V34.5001Z" fill="#102746"/>
<path d="M54.2382 45.3569C53.4875 44.3404 53.0018 44.0753 52.8693 44.0164C52.5897 44.1489 52.1039 44.7382 51.8832 45.1065C50.5732 48.2295 48.7333 50.2625 46.4371 51.1316C45.6276 51.441 44.7739 51.5883 43.9055 51.5883C42.6838 51.5883 41.4327 51.2789 40.1963 50.6749C39.9313 50.5424 39.6958 50.395 39.4603 50.233C39.4898 51.1758 39.7253 52.1186 40.1963 52.9436C41.1972 54.6671 43.1401 55.7867 45.1419 55.7867C46.967 55.7867 48.6744 54.9028 50.2199 53.9453C52.6633 52.4132 54.93 50.6013 56.9759 48.5684C55.4157 47.0068 54.459 45.681 54.2529 45.3716L54.2382 45.3569Z" fill="#00BFA5"/>
</g>
<defs>
<clipPath id="clip0_9_2">
<rect width="66" height="51" fill="white" transform="translate(18 26)"/>
</clipPath>
</defs>
</svg>
