<?xml version="1.0" encoding="UTF-8"?>
<svg width="33px" height="32px" viewBox="0 0 33 32" version="1.1" xmlns="http://www.w3.org/2000/svg" xmlns:xlink="http://www.w3.org/1999/xlink">
    <!-- Generator: sketchtool 58 (101010) - https://sketch.com -->
    <title>7563500A-B47E-43B2-A90D-BB7DE5C36383</title>
    <desc>Created with sketchtool.</desc>
    <g id="HR-Software" stroke="none" stroke-width="1" fill="none" fill-rule="evenodd">
        <g id="HR-software.a" transform="translate(-49.000000, -832.000000)" fill-rule="nonzero">
            <g id="Group-34" transform="translate(33.000000, 754.000000)">
                <g id="ic_Payroll" transform="translate(32.500000, 94.000000) scale(-1, 1) translate(-32.500000, -94.000000) translate(16.000000, 78.000000)">
                    <circle id="Oval" fill="#FFFFFF" cx="10.9668786" cy="9.68177876" r="9.02182348"></circle>
                    <path d="M32.2678579,24.8080843 C32.2678579,24.7883429 32.2678579,24.7686015 32.2612774,24.7488601 C32.2612774,24.7291187 32.254697,24.7093773 32.2481165,24.6896359 C32.241536,24.6698945 32.241536,24.650153 32.2349556,24.6369921 C32.2283751,24.6172507 32.2217946,24.6040898 32.2086337,24.5843484 C32.2020532,24.5646069 32.1954728,24.551446 32.1823118,24.5317046 C32.1757313,24.5119632 32.1625704,24.4988023 32.1494095,24.4856413 C32.1362485,24.4724804 32.1296681,24.452739 32.1165071,24.439578 C32.1033462,24.4264171 32.0901852,24.4132562 32.0704438,24.4000952 C32.0572829,24.3869343 32.044122,24.3737733 32.030961,24.3606124 C32.0178001,24.3474515 31.9980587,24.340871 31.9783173,24.32771 C31.9651563,24.3211296 31.9519954,24.3079686 31.932254,24.3013882 L24.6739963,20.7216128 C24.6542549,20.7084519 24.6345135,20.7018714 24.6081916,20.695291 C24.4831627,20.6492277 21.4890491,19.6029331 19.0411145,20.7018714 L13.6385492,22.6562708 C13.6253882,22.6628513 13.6056468,22.6694318 13.5924859,22.6760122 C12.8159905,23.0313576 12.4080014,23.8275944 12.5725131,24.663314 C12.7370249,25.4924531 13.4082327,26.0781149 14.2505328,26.1175977 C14.2571133,26.1175977 14.2571133,26.1175977 14.2636938,26.1175977 C14.3163375,26.1175977 14.5532344,26.1044368 17.01433,25.9465055 C18.0869465,25.8807008 19.1924653,25.8083157 19.2911723,25.8017352 C19.6004544,25.7885742 19.8570927,25.5385164 19.8636732,25.2226539 C19.8702537,24.8936304 19.6136153,24.6172507 19.2780114,24.6106702 C19.2451091,24.6106702 19.2451091,24.6106702 16.9419448,24.7554406 C15.7903627,24.8278257 14.5005907,24.9133718 14.2834352,24.9265328 C13.8688656,24.8936304 13.7701586,24.5448655 13.7438367,24.439578 C13.6977734,24.2158421 13.7635781,23.9197209 14.0728602,23.7683702 L19.468845,21.8139708 C19.482006,21.8073903 19.4951669,21.8008098 19.5149083,21.7942293 C21.4100835,20.9321879 23.88434,21.7086832 24.1804611,21.8008098 L27.4114715,23.3932834 L25.6347448,27.5850424 C24.7595424,27.0454439 23.6935063,26.9006736 22.7064359,27.1967947 L15.4547587,29.37493 C14.5927172,29.6381488 13.6385492,29.5394418 12.8423124,29.1051308 L1.48442228,22.952392 C1.07643318,22.728656 1.20804256,22.3404083 1.24094491,22.2614427 C1.28042773,22.1561552 1.45151993,21.8271317 1.8660895,21.9389997 L11.6464149,24.985757 C11.9556969,25.0910445 12.2978813,24.9199523 12.4031689,24.6106702 C12.5084564,24.2948077 12.3373642,23.9592038 12.0280821,23.8539163 L2.22801531,20.793998 C2.21485438,20.7874175 2.20827391,20.7874175 2.19511297,20.7874175 C1.31991054,20.5505206 0.471029996,20.9716707 0.135426059,21.8139708 C-0.206758347,22.6628513 0.115684651,23.5577951 0.918501912,23.9986866 L12.2829725,30.1711668 C13.355589,30.7568286 14.6387805,30.888438 15.8035236,30.5330927 L23.0552008,28.3549573 C23.7198282,28.1575432 24.4370994,28.2496698 25.0227612,28.6247565 L28.7209849,30.9542427 C28.7407263,30.9674036 28.7538873,30.9739841 28.7736287,30.9805646 C28.7802092,30.9805646 28.7802092,30.987145 28.7867896,30.987145 C28.7999506,30.9937255 28.806531,30.9937255 28.819692,30.9937255 C28.8328529,31.000306 28.8525943,31.0068864 28.8657553,31.0134669 C28.8723357,31.0134669 28.8854967,31.0200474 28.8920771,31.0200474 C28.9052381,31.0266279 28.9249795,31.0266279 28.9381404,31.0332083 C28.9447209,31.0332083 28.9578818,31.0332083 28.9644623,31.0397888 C28.9907842,31.0397888 29.0105256,31.0463693 29.0368475,31.0463693 C29.0631693,31.0463693 29.0894912,31.0463693 29.1158131,31.0397888 C29.1223936,31.0397888 29.1355545,31.0397888 29.142135,31.0332083 C29.1618764,31.0332083 29.1750373,31.0266279 29.1947787,31.0200474 C29.2013592,31.0200474 29.2145201,31.0134669 29.2211006,31.0134669 C29.2342615,31.0068864 29.254003,31.000306 29.2671639,30.9937255 C29.2737444,30.987145 29.2869053,30.987145 29.2934858,30.9805646 C29.3066467,30.9739841 29.3198076,30.9674036 29.3395491,30.9542427 C29.3461295,30.9476622 29.3592905,30.9410818 29.3658709,30.9410818 C29.3790319,30.9345013 29.3921928,30.9213403 29.4053537,30.9147599 C29.4119342,30.9081794 29.4250952,30.9015989 29.4316756,30.8950185 C29.4448366,30.8818575 29.451417,30.8752771 29.464578,30.8621161 C29.4711584,30.8555356 29.4777389,30.8489552 29.4908998,30.8357942 C29.5040608,30.8226333 29.5106413,30.8094724 29.5172217,30.7963114 C29.5238022,30.789731 29.5303827,30.77657 29.5369631,30.7699895 C29.5435436,30.7568286 29.5501241,30.7502481 29.5501241,30.7502481 C29.5567045,30.7370872 29.5698655,30.7173458 29.576446,30.6976044 L32.2086337,25.0910445 C32.2152142,25.0713031 32.2217946,25.0581421 32.2283751,25.0384007 C32.2349556,25.0186593 32.241536,24.9989179 32.2481165,24.985757 C32.254697,24.9660156 32.254697,24.9462742 32.254697,24.9265328 C32.254697,24.9067914 32.2612774,24.8870499 32.2612774,24.8673085 C32.2678579,24.8475671 32.2678579,24.8278257 32.2678579,24.8080843 Z M30.8859594,25.1107859 L28.7867896,29.5789246 L26.661298,28.2365088 L28.484088,23.9328819 L30.8859594,25.1107859 Z" id="Shape" fill="#33415A"></path>
                    <path d="M10.1245785,10.2806015 L11.7960178,10.2806015 C12.4803866,10.2806015 13.033146,10.8333609 13.033146,11.5177297 C13.033146,12.2020985 12.4803866,12.7548579 11.7960178,12.7548579 L8.78874326,12.7548579 C8.45971979,12.7548579 8.18992055,13.0246572 8.18992055,13.3536807 C8.18992055,13.6827041 8.45971979,13.9525034 8.78874326,13.9525034 L10.3614754,13.9525034 L10.3614754,15.1304074 C10.3614754,15.4594308 10.6312747,15.7292301 10.9602981,15.7292301 C11.2893216,15.7292301 11.5591209,15.4594308 11.5591209,15.1304074 L11.5591209,13.9525034 L11.8025982,13.9525034 C13.145014,13.9525034 14.2373719,12.8601455 14.2373719,11.5177297 C14.2373719,10.175314 13.145014,9.08295605 11.8025982,9.08295605 L10.131159,9.08295605 C9.4467902,9.08295605 8.89403077,8.53019662 8.89403077,7.84582781 C8.89403077,7.16145899 9.4467902,6.60869957 10.131159,6.60869957 L13.0857897,6.60869957 C13.4148132,6.60869957 13.6846125,6.33890032 13.6846125,6.00987686 C13.6846125,5.68085339 13.4148132,5.41105415 13.0857897,5.41105415 L11.5657013,5.41105415 L11.5657013,4.25947201 C11.5657013,3.93044854 11.2959021,3.6606493 10.9668786,3.6606493 C10.6378551,3.6606493 10.3680559,3.93044854 10.3680559,4.25947201 L10.3680559,5.41763461 L10.1245785,5.41763461 C8.78216279,5.41763461 7.68980488,6.50999253 7.68980488,7.85240828 C7.69638535,9.18824355 8.78874326,10.2806015 10.1245785,10.2806015 Z" id="Path" fill="#00B59D" transform="translate(10.963588, 9.694940) scale(-1, 1) translate(-10.963588, -9.694940) "></path>
                    <path d="M10.9668786,19.2958445 C16.2707369,19.2958445 20.5809443,14.9790566 20.5809443,9.68177876 C20.5809443,4.38450093 16.2641564,0.0611325603 10.9668786,0.0611325603 C5.66960079,0.0611325603 1.34623242,4.37792046 1.34623242,9.68177876 C1.34623242,14.9856371 5.66302032,19.2958445 10.9668786,19.2958445 Z M10.9668786,1.25877798 C15.61269,1.25877798 19.3898794,5.03596739 19.3898794,9.68177876 C19.3898794,14.3275901 15.61269,18.1047795 10.9668786,18.1047795 C6.32106725,18.1047795 2.54387784,14.3275901 2.54387784,9.68177876 C2.54387784,5.03596739 6.32106725,1.25877798 10.9668786,1.25877798 Z" id="Shape" fill="#00B59D"></path>
                </g>
            </g>
        </g>
    </g>
</svg>