<svg width="54" height="54" viewBox="0 0 54 54" fill="none" xmlns="http://www.w3.org/2000/svg">
<g clip-path="url(#clip0_228_2781)">
<path d="M36.4065 20.1624L42.4656 9.12109" stroke="#102746" stroke-width="1.2" stroke-linecap="round" stroke-linejoin="round"/>
<path d="M43.6203 20.1625C42.5305 20.1625 41.6612 19.2802 41.6612 18.2033V16.841C41.6612 15.7511 42.5435 14.8818 43.6203 14.8818C44.7102 14.8818 45.5795 15.7641 45.5795 16.841V18.2033C45.5795 19.2932 44.6972 20.1625 43.6203 20.1625Z" stroke="#102746" stroke-width="1.2" stroke-linecap="round" stroke-linejoin="round"/>
<path d="M35.3815 14.4017C34.2917 14.4017 33.4224 13.5195 33.4224 12.4426V11.0802C33.4224 9.99039 34.3046 9.12109 35.3815 9.12109C36.4714 9.12109 37.3407 10.0034 37.3407 11.0802V12.4426C37.3407 13.5324 36.4584 14.4017 35.3815 14.4017Z" stroke="#102746" stroke-width="1.2" stroke-linecap="round" stroke-linejoin="round"/>
<path d="M24.7684 5.13794C11.4695 5.13794 0.687622 15.9198 0.687622 29.2316C0.687622 42.5435 11.4695 53.3253 24.7813 53.3253C38.0932 53.3253 48.875 42.5435 48.875 29.2316H24.7813V5.13794H24.7684Z" stroke="#102746" stroke-width="1.2" stroke-linecap="round" stroke-linejoin="round"/>
<path d="M29.2316 0.687622V24.7813H53.3253C53.3124 11.4695 42.5305 0.687622 29.2316 0.687622Z" stroke="#102746" stroke-width="1.2" stroke-linecap="round" stroke-linejoin="round"/>
<path d="M22.1735 20.5127C18.4238 21.6285 15.6862 25.1057 15.6862 29.2186C15.6862 34.2397 19.7602 38.3138 24.7814 38.3138C28.8943 38.3138 32.3715 35.5761 33.4873 31.8265" stroke="#102746" stroke-width="1.2" stroke-linecap="round" stroke-linejoin="round"/>
<path d="M43.5685 31.7876C42.3229 41.0644 34.3825 48.2134 24.7684 48.2134C14.285 48.2134 5.78666 39.7151 5.78666 29.2316C5.78666 19.6175 12.9356 11.6771 22.2124 10.4315V7.84961C11.5474 9.12111 3.24365 18.2163 3.24365 29.2316C3.24365 41.1033 12.8967 50.7564 24.7684 50.7564C35.7708 50.7564 44.8789 42.4527 46.1504 31.7876H43.5685Z" fill="#FF3F62"/>
</g>
<defs>
<clipPath id="clip0_228_2781">
<rect width="54" height="54" fill="white"/>
</clipPath>
</defs>
</svg>
