<svg width="85" height="87" viewBox="0 0 85 87" fill="none" xmlns="http://www.w3.org/2000/svg">
<rect x="1.00006" y="1.37915" width="82.1702" height="84" rx="5" stroke="#102746" stroke-width="2"/>
<path d="M32.9361 30.5706L33.4665 30.0402L32.9361 29.5099L32.4058 30.0402L32.9361 30.5706ZM45.7446 43.3791L45.2143 43.9094L45.7188 44.4139L46.2478 43.9352L45.7446 43.3791ZM65.7065 26.0335C65.7272 25.6199 65.4086 25.2677 64.9949 25.247L58.2533 24.91C57.8396 24.8893 57.4875 25.2079 57.4668 25.6216C57.4461 26.0353 57.7647 26.3874 58.1784 26.4081L64.1709 26.7077L63.8713 32.7002C63.8506 33.1139 64.1692 33.4661 64.5829 33.4867C64.9966 33.5074 65.3487 33.1888 65.3694 32.7751L65.7065 26.0335ZM20.658 43.9094L33.4665 31.1009L32.4058 30.0402L19.5973 42.8487L20.658 43.9094ZM32.4058 31.1009L45.2143 43.9094L46.275 42.8487L33.4665 30.0402L32.4058 31.1009ZM46.2478 43.9352L65.4606 26.5522L64.4542 25.4399L45.2415 42.8229L46.2478 43.9352Z" fill="#B275FF"/>
<rect x="15.0959" y="70.3686" width="53.9787" height="0.914894" stroke="#102746" stroke-width="0.914894"/>
<rect x="15.0959" y="61.2197" width="53.9787" height="0.914894" stroke="#102746" stroke-width="0.914894"/>
</svg>
