<svg width="47" height="54" viewBox="0 0 47 54" fill="none" xmlns="http://www.w3.org/2000/svg">
<g clip-path="url(#clip0_228_2858)">
<path d="M26.3433 37.9644L30.9257 41.8572C31.733 42.5239 32.196 43.512 32.196 44.5596V53.3691" stroke="#102746" stroke-width="1.2" stroke-linecap="round" stroke-linejoin="round"/>
<path d="M20.6567 37.9644L16.0743 41.8572C15.267 42.5239 14.804 43.512 14.804 44.5596V53.3691" stroke="#102746" stroke-width="1.2" stroke-linecap="round" stroke-linejoin="round"/>
<path d="M28.9313 45.4048L28.9432 47.2619V53.3691" stroke="#102746" stroke-width="1.2" stroke-linecap="round" stroke-linejoin="round"/>
<path d="M18.0687 45.4048L18.0568 47.2619V53.3691" stroke="#102746" stroke-width="1.2" stroke-linecap="round" stroke-linejoin="round"/>
<path d="M28.9669 33.2739C28.9669 36.3096 26.5213 38.762 23.4941 38.762C20.4668 38.762 18.0212 36.3096 18.0212 33.2739C18.0212 30.2381 20.4668 27.7858 23.4941 27.7858C26.5213 27.7858 28.9669 30.2381 28.9669 33.2739V33.2739Z" stroke="#102746" stroke-width="1.2" stroke-linecap="round" stroke-linejoin="round"/>
<path d="M23.4941 36.3572C21.7964 36.3572 20.4193 34.9763 20.4193 33.2739C20.4193 31.5715 21.7964 30.1906 23.4941 30.1906C25.1917 30.1906 26.5688 31.5715 26.5688 33.2739C26.5688 34.9763 25.1917 36.3572 23.4941 36.3572Z" fill="#008AD4"/>
<path d="M40.34 35.3691L44.5307 38.9287C45.2667 39.5358 45.6941 40.4406 45.6941 41.393V49.4644" stroke="#102746" stroke-width="1.2" stroke-linecap="round" stroke-linejoin="round"/>
<path d="M35.1046 35.3691L30.9139 38.9287" stroke="#102746" stroke-width="1.2" stroke-linecap="round" stroke-linejoin="round"/>
<path d="M42.6906 42.1787L42.7024 43.8811V49.4644" stroke="#102746" stroke-width="1.2" stroke-linecap="round" stroke-linejoin="round"/>
<path d="M37.7163 36.1072C40.4832 36.1072 42.7262 33.858 42.7262 31.0834C42.7262 28.3088 40.4832 26.0596 37.7163 26.0596C34.9495 26.0596 32.7065 28.3088 32.7065 31.0834C32.7065 33.858 34.9495 36.1072 37.7163 36.1072Z" stroke="#102746" stroke-width="1.2" stroke-linecap="round" stroke-linejoin="round"/>
<path d="M6.52942 35.3691L2.33872 38.9287C1.60267 39.5358 1.17529 40.4406 1.17529 41.393V49.4644" stroke="#102746" stroke-width="1.2" stroke-linecap="round" stroke-linejoin="round"/>
<path d="M11.753 35.3691L15.9437 38.9287" stroke="#102746" stroke-width="1.2" stroke-linecap="round" stroke-linejoin="round"/>
<path d="M4.16696 42.1787L4.15509 43.8811V49.4644" stroke="#102746" stroke-width="1.2" stroke-linecap="round" stroke-linejoin="round"/>
<path d="M4.13135 31.0834C4.13135 33.8572 6.3751 36.1072 9.1412 36.1072C11.9073 36.1072 14.1511 33.8572 14.1511 31.0834C14.1511 28.3096 11.9073 26.0596 9.1412 26.0596C6.3751 26.0596 4.13135 28.3096 4.13135 31.0834V31.0834Z" stroke="#102746" stroke-width="1.2" stroke-linecap="round" stroke-linejoin="round"/>
<path d="M23.4941 0.630981V24.5715" stroke="#102746" stroke-width="1.2" stroke-linecap="round" stroke-linejoin="round"/>
<path d="M0.629196 23.5834C0.629196 10.9167 10.8626 0.630981 23.4941 0.630981C36.1255 0.630981 46.3708 10.9524 46.3708 23.6191" stroke="#102746" stroke-width="1.2" stroke-linecap="round" stroke-linejoin="round"/>
<path d="M16.9053 5.88098C14.0086 9.40479 11.2425 15 11.2425 23.5596" stroke="#102746" stroke-width="1.2" stroke-linecap="round" stroke-linejoin="round"/>
<path d="M23.4941 13.7262C10.8626 13.7262 7.59787 7.08337 7.59787 7.08337" stroke="#102746" stroke-width="1.2" stroke-linecap="round" stroke-linejoin="round"/>
<path d="M30.0947 5.88098C32.9914 9.40479 35.7575 15 35.7575 23.5596" stroke="#102746" stroke-width="1.2" stroke-linecap="round" stroke-linejoin="round"/>
<path d="M23.5059 13.7262C36.1374 13.7262 39.4021 7.08337 39.4021 7.08337" stroke="#102746" stroke-width="1.2" stroke-linecap="round" stroke-linejoin="round"/>
<path d="M1.49583 29.881C0.925988 27.881 0.629196 25.7739 0.629196 23.5834" stroke="#102746" stroke-width="1.2" stroke-linecap="round" stroke-linejoin="round"/>
<path d="M46.3708 23.5834C46.3708 25.7619 46.074 27.8691 45.5042 29.8572" stroke="#102746" stroke-width="1.2" stroke-linecap="round" stroke-linejoin="round"/>
</g>
<defs>
<clipPath id="clip0_228_2858">
<rect width="47" height="54" fill="white"/>
</clipPath>
</defs>
</svg>
