<svg xmlns="http://www.w3.org/2000/svg" width="21" height="25" viewBox="0 0 21 25">
    <g fill="#525A6E" fill-rule="nonzero">
        <path d="M19.96 6.751h-5.05a.506.506 0 0 1-.507-.506V1.194a.506.506 0 0 1 .864-.358l5.051 5.05a.506.506 0 0 1-.358.865zM15.416 5.74h3.322l-3.322-3.323v3.323z"/>
        <path d="M19.96 24.988H1.04a.506.506 0 0 1-.507-.507V1.194c0-.28.227-.506.506-.506h13.87c.135 0 .263.053.358.148l5.051 5.05a.506.506 0 0 1 .149.359V24.48c0 .28-.227.506-.507.506zM1.546 23.974h17.908V6.455L14.7 1.7H1.546v22.275z"/>
        <path d="M5.184 22.477a.506.506 0 0 1-.506-.506v-4.894a.506.506 0 1 1 1.013 0v4.894c0 .28-.227.506-.507.506zM8.728 22.477a.506.506 0 0 1-.506-.506V14.04a.506.506 0 1 1 1.012 0v7.93c0 .28-.226.507-.506.507zM12.272 22.477a.506.506 0 0 1-.506-.506v-6.919a.506.506 0 1 1 1.012 0v6.919c0 .28-.226.506-.506.506zM15.816 22.477a.506.506 0 0 1-.507-.506v-8.437a.506.506 0 1 1 1.013 0v8.437c0 .28-.227.506-.506.506zM5.184 14.293a.506.506 0 0 1-.383-.837L8.238 9.49a.507.507 0 0 1 .624-.114l3.407 1.85 3.3-1.847a.507.507 0 0 1 .495.884l-3.544 1.983a.506.506 0 0 1-.489.003L8.735 10.46l-3.168 3.658a.505.505 0 0 1-.383.175zM11.544 4.225H3.76a.506.506 0 1 1 0-1.012h7.784a.506.506 0 1 1 0 1.012zM9.52 6.757H3.76a.506.506 0 1 1 0-1.013h5.76a.506.506 0 1 1 0 1.013z"/>
    </g>
</svg>
