<svg width="51" height="53" viewBox="0 0 51 53" fill="none" xmlns="http://www.w3.org/2000/svg">
<g clip-path="url(#clip0_228_2796)">
<path d="M21.4464 13.4243L8.40503 26.4226L12.873 30.8758L25.4352 18.3422L33.9698 26.8486L47.4256 13.4372L50.3136 16.3157V5.87317H39.8365L42.9576 8.98398L33.9698 17.9421L25.4352 9.43576L21.4464 13.4243Z" stroke="#102746" stroke-width="1.2" stroke-miterlimit="10" stroke-linecap="round"/>
<path d="M46.1176 4.01433C46.1176 2.16849 44.6153 0.684082 42.7763 0.684082C43.9419 0.684082 5.84082 0.684082 4.57165 0.684082C2.71969 0.684082 1.21741 2.1814 1.21741 4.01433V30.566C1.21741 32.4118 2.71969 33.8962 4.5587 33.8962H42.7634C44.6153 33.8962 46.1047 32.3989 46.1047 30.566V18.368" stroke="#102746" stroke-width="1.2" stroke-linecap="round" stroke-linejoin="round"/>
<path d="M12.2126 33.9092L10.1793 39.0465H23.674H37.1557L35.1224 33.9092" stroke="#102746" stroke-width="1.2" stroke-linecap="round" stroke-linejoin="round"/>
<path d="M42.5432 42.9446L46.4543 49.9665C47.0371 51.0249 46.273 52.3157 45.0686 52.3157H2.27936C1.06199 52.3157 0.297897 51.0249 0.893631 49.9665L4.80475 42.9446H42.5562H42.5432Z" stroke="#102746" stroke-width="1.2" stroke-linecap="round" stroke-linejoin="round"/>
<path d="M3.63916 49.9409L6.20341 45.3328H41.1315L43.6958 49.9409H3.63916Z" fill="#DA8455"/>
</g>
<defs>
<clipPath id="clip0_228_2796">
<rect width="51" height="53" fill="white"/>
</clipPath>
</defs>
</svg>
