<svg xmlns="http://www.w3.org/2000/svg" width="54" height="83" viewBox="0 0 54 83">
    <g fill="none" fill-rule="nonzero" stroke="#FFF">
        <path fill="#3289CE" d="M44.26 11.998c-5.096 0-9.24 4.15-9.24 9.252 0 3.594 2.061 6.709 5.059 8.24a14.018 14.018 0 0 1-5.426 7.006A9.234 9.234 0 0 0 27 32.422c-3.206 0-6.033 1.645-7.691 4.134a14.014 14.014 0 0 1-5.502-7.01c3.059-1.51 5.173-4.656 5.173-8.296a9.214 9.214 0 0 0-2.17-5.945c2.544-2.695 6.135-4.387 10.122-4.387.618 0 1.231.055 1.84.134l-4.743 4.73a1.4 1.4 0 0 0-.004 1.975 1.395 1.395 0 0 0 1.974.004l6.75-6.73a1.4 1.4 0 0 0 .158-1.79l-5.181-7.41a1.393 1.393 0 0 0-1.942-.344 1.397 1.397 0 0 0-.344 1.945L28.8 8.235a17.048 17.048 0 0 0-1.867-.11c-4.821 0-9.16 2.064-12.216 5.341a9.167 9.167 0 0 0-4.976-1.468c-5.095 0-9.24 4.15-9.24 9.252s4.145 9.252 9.24 9.252a9.23 9.23 0 0 0 1.406-.118 16.811 16.811 0 0 0 6.984 8.72 9.222 9.222 0 0 0-.37 2.57c0 5.103 4.145 9.253 9.24 9.253 5.095 0 9.24-4.15 9.24-9.252 0-.919-.139-1.805-.389-2.643a16.81 16.81 0 0 0 6.876-8.668c.5.084 1.01.138 1.533.138 5.095 0 9.24-4.15 9.24-9.252s-4.145-9.252-9.24-9.252zm-33.814 15.64c-.235.026-.464.071-.706.071-3.556 0-6.45-2.898-6.45-6.459 0-3.56 2.894-6.46 6.45-6.46 1.177 0 2.267.342 3.219.896a6.481 6.481 0 0 1 2.096 1.916 6.421 6.421 0 0 1 1.136 3.648c0 2.315-1.234 4.333-3.066 5.474a6.379 6.379 0 0 1-2.68.913zM33.45 41.674c0 3.56-2.895 6.459-6.451 6.459-3.556 0-6.45-2.898-6.45-6.46 0-.433.045-.855.127-1.265a6.406 6.406 0 0 1 1.147-2.55C23 36.263 24.874 35.215 27 35.215c2.108 0 3.967 1.033 5.144 2.604a6.405 6.405 0 0 1 1.171 2.542c.088.424.136.863.136 1.313zM44.26 27.709c-.287 0-.561-.048-.839-.085a6.394 6.394 0 0 1-2.67-.968 6.452 6.452 0 0 1-2.942-5.406c0-3.56 2.895-6.46 6.45-6.46 3.557 0 6.452 2.9 6.452 6.46s-2.895 6.46-6.451 6.46z"/>
        <path fill="#33415A" d="M27 54.069c-9.958 0-18.06 8.112-18.06 18.083v8.451c0 .772.624 1.397 1.395 1.397h33.33c.77 0 1.394-.625 1.394-1.397v-8.451c0-9.971-8.101-18.083-18.059-18.083zm15.27 25.138H11.73v-7.055c0-8.431 6.85-15.29 15.27-15.29s15.27 6.859 15.27 15.29v7.055z"/>
    </g>
</svg>
