<svg xmlns="http://www.w3.org/2000/svg" width="61" height="61" viewBox="0 0 61 61">
  <g id="Structured_Administration_and_Less_Paperwork" data-name="Structured Administration and Less Paperwork" transform="translate(-1259 -342)">
    <g id="stack-of-paper-outline" transform="translate(1267.999 311.209)">
      <g id="Group_2" data-name="Group 2" transform="translate(0.001 45.791)">
        <path id="Path_20" data-name="Path 20" d="M42.633,53.967l-7.266-3.08c-2.739-1.3-6.279-4.842-6.314-4.877a.744.744,0,0,0-1.2.208c-1.218,2.582-4.759,3.347-4.841,3.366L.548,55.759a.745.745,0,0,0-.18,1.36l12.014,7.047a.745.745,0,0,0,.591.071l29.583-8.873a.744.744,0,0,0,.077-1.4ZM12.856,62.718,2.644,56.728l20.715-5.7a9.452,9.452,0,0,0,5.332-3.3,28.073,28.073,0,0,0,6.066,4.516l5.394,2.286Z" transform="translate(-0.001 -45.791)" fill="#00bea4"/>
        <path id="Path_21" data-name="Path 21" d="M42.129,126.274l-29.273,8.78L1.122,128.171a.744.744,0,0,0-.754,1.284l12.294,7.212L42.556,127.7a.744.744,0,1,0-.427-1.426Z" transform="translate(-0.001 -115.147)" fill="#00bea4"/>
        <path id="Path_22" data-name="Path 22" d="M42.129,147.871l-29.273,8.78L1.122,149.767a.745.745,0,0,0-.754,1.285l12.294,7.212L42.556,149.3a.744.744,0,1,0-.427-1.426Z" transform="translate(-0.001 -133.766)" fill="#00bea4"/>
        <path id="Path_23" data-name="Path 23" d="M42.129,169.471l-29.273,8.781L1.122,171.368a.745.745,0,0,0-.754,1.284l12.294,7.212L42.556,170.9a.744.744,0,1,0-.427-1.426Z" transform="translate(-0.001 -152.387)" fill="#00bea4"/>
        <path id="Path_24" data-name="Path 24" d="M42.129,191.069,12.856,199.85,1.122,192.966a.745.745,0,0,0-.754,1.284l12.294,7.212L42.556,192.5a.744.744,0,1,0-.427-1.426Z" transform="translate(-0.001 -171.006)" fill="#00bea4"/>
      </g>
    </g>
    <g id="Ellipse_1" data-name="Ellipse 1" transform="translate(1259 342)" fill="none" stroke="#33415a" stroke-width="2">
      <circle cx="30.5" cy="30.5" r="30.5" stroke="none"/>
      <circle cx="30.5" cy="30.5" r="29.5" fill="none"/>
    </g>
    <line id="Line_1" data-name="Line 1" x2="37" y2="47" transform="translate(1270.5 349.5)" fill="none" stroke="#33415a" stroke-width="2"/>
  </g>
</svg>
