<svg width="43" height="53" viewBox="0 0 43 53" fill="none" xmlns="http://www.w3.org/2000/svg">
<g clip-path="url(#clip0_228_2816)">
<path d="M37.4696 48.8018L41.2804 36.0099C41.6987 34.6067 40.6414 33.2034 39.1775 33.2034H3.82243C2.3585 33.2034 1.30122 34.6067 1.71949 36.0099L5.53035 48.8018H21.5639" stroke="#102746" stroke-width="1.06" stroke-linecap="round" stroke-linejoin="round"/>
<path d="M2.84651 46.1228L0.813271 49.9383C0.220729 51.0517 1.03402 52.3854 2.28882 52.3854H40.7111C41.9776 52.3854 42.7792 51.0401 42.1867 49.9383L40.1535 46.1228" stroke="#102746" stroke-width="1.06" stroke-linecap="round" stroke-linejoin="round"/>
<path d="M12.3156 9.77667C12.3156 4.70862 16.4285 0.614746 21.4942 0.614746C26.5598 0.614746 30.6728 4.72022 30.6728 9.77667" stroke="#102746" stroke-width="1.06" stroke-linecap="round" stroke-linejoin="round"/>
<path d="M27.3731 9.73022H30.5101C31.6719 9.73022 32.6247 10.6696 32.6247 11.8409V12.9775C32.6247 14.1372 31.6836 15.0882 30.5101 15.0882H28.6163" stroke="#102746" stroke-width="1.06" stroke-linecap="round" stroke-linejoin="round"/>
<path d="M15.5339 9.73022H12.4899C11.328 9.73022 10.3753 10.6696 10.3753 11.8409V12.9775C10.3753 14.1372 11.3164 15.0882 12.4899 15.0882H14.5231" stroke="#102746" stroke-width="1.06" stroke-linecap="round" stroke-linejoin="round"/>
<path d="M3.82245 35.3606L4.75193 38.5731H38.248L39.2007 35.3954L39.1891 35.3606H21.4942H3.82245Z" fill="#00C0FF"/>
<path d="M25.9324 21.2812L31.091 25.6883C32.5782 26.9524 33.4264 28.8079 33.4264 30.7563V33.1918" stroke="#102746" stroke-width="1.06" stroke-linecap="round" stroke-linejoin="round"/>
<path d="M17.207 21.2812L11.9554 25.6883C10.445 26.9524 9.57361 28.8195 9.57361 30.7911V33.1918" stroke="#102746" stroke-width="1.06" stroke-linecap="round" stroke-linejoin="round"/>
<path d="M28.6163 14.7055C28.6163 19.3328 25.4677 23.0904 21.5755 23.0904C17.6833 23.0904 14.5347 19.3328 14.5347 14.7055C14.5347 10.0781 17.6833 6.32056 21.5755 6.32056C25.4677 6.32056 28.6163 10.0781 28.6163 14.7055Z" stroke="#102746" stroke-width="1.06" stroke-linecap="round" stroke-linejoin="round"/>
</g>
<defs>
<clipPath id="clip0_228_2816">
<rect width="43" height="53" fill="white"/>
</clipPath>
</defs>
</svg>
