<svg xmlns="http://www.w3.org/2000/svg" width="84" height="92" viewBox="0 0 84 92">
    <g fill="none" fill-rule="nonzero">
        <g fill="#33415A">
            <path stroke="#FFF" stroke-width="4" d="M42 2c22.056 0 40 17.944 40 40 0 9.785-3.651 18.67-9.5 25.625l8.688 9.343A3 3 0 0 1 79 82H52a3.001 3.001 0 1 1 0-6h20.156l-5.781-6.22a3 3 0 0 1 .031-4.124C72.344 59.53 76 51.214 76 42 76 23.187 60.813 8 42 8 23.187 8 8 23.187 8 42c0 18.813 15.187 34 34 34a3 3 0 1 1 0 6C19.944 82 2 64.055 2 42 2 19.944 19.944 2 42 2z"/>
            <path d="M42.37 48.434c-1.257 0-2.188.954-2.188 2.212v.05c0 1.259.931 2.213 2.187 2.213 1.252 0 2.176-.956 2.176-2.213v-.05c0-1.258-.924-2.212-2.176-2.212zm-.962-24.616c-.827 0-1.306.472-1.215 1.092l1.309 19.22c.088.575.637.947 1.405.947.769 0 1.307-.37 1.403-.944l1.315-19.223c.094-.62-.4-1.092-1.224-1.092z"/>
        </g>
        <path fill="#FFF" stroke="#8B7DD8" stroke-width="2" d="M39.434 83.793c.99 1.53 2.16 2.97 3.69 3.96 2.159 1.529 4.678 2.429 7.557 2.429 6.119 0 11.158-4.14 12.687-9.718.36-1.08.45-2.16.45-3.419 0-.45 0-.81-.09-1.17-.45-5.578-4.499-10.347-9.897-11.607-.99-.18-2.07-.45-3.15-.45-.45 0-.9 0-1.44.09-.18 0-.45 0-.63.09-6.208.99-11.156 6.479-11.156 13.047 0 2.34.81 4.769 1.98 6.748z"/>
        <path fill="#8B7DD8" d="M49.634 76.198h-5.415a.401.401 0 0 0-.4.4v.803c0 .222.179.401.4.401h5.415c.11 0 .2.09.2.2v5.415c0 .222.18.401.401.401h.802c.222 0 .402-.18.402-.4v-5.415c0-.111.09-.2.2-.2h5.414c.222 0 .402-.18.402-.402V76.6a.401.401 0 0 0-.402-.401H51.64a.2.2 0 0 1-.2-.2v-5.415a.401.401 0 0 0-.402-.401h-.802a.401.401 0 0 0-.4.4v5.415a.2.2 0 0 1-.201.2z"/>
    </g>
</svg>
