<svg xmlns="http://www.w3.org/2000/svg" width="42" height="32" viewBox="0 0 42 32">
    <g fill="none" fill-rule="nonzero" stroke-width=".3">
        <path fill="#33415A" stroke="#32405B" d="M21 1a3.728 3.728 0 0 0-3.72 3.72c0 1.003.471 1.847 1.118 2.515-2.571 1.182-4.375 3.954-4.375 7.253 0 .257.209.465.465.465h13.024a.465.465 0 0 0 .465-.465c0-3.3-1.804-6.071-4.375-7.253.647-.668 1.119-1.512 1.119-2.514C24.72 2.67 23.05 1 21 1zm0 .93a2.784 2.784 0 0 1 1.613 5.058.465.465 0 0 0 .131.814c2.344.804 4.054 3.248 4.23 6.221H15.026c.176-2.973 1.886-5.417 4.23-6.22a.465.465 0 0 0 .13-.815A2.784 2.784 0 0 1 21 1.93zM7.977 17.744a3.728 3.728 0 0 0-3.721 3.721c0 1.003.472 1.846 1.119 2.515C2.803 25.16 1 27.933 1 31.233c0 .256.208.465.465.465h13.023a.465.465 0 0 0 .465-.465c0-3.3-1.803-6.072-4.375-7.253.648-.67 1.12-1.512 1.12-2.515 0-2.05-1.672-3.72-3.721-3.72zm26.046 0a3.728 3.728 0 0 0-3.72 3.721c0 1.003.471 1.846 1.119 2.515-2.572 1.181-4.375 3.953-4.375 7.253 0 .256.208.465.465.465h13.023a.465.465 0 0 0 .465-.465c0-3.3-1.803-6.072-4.375-7.253.647-.67 1.12-1.512 1.12-2.515 0-2.05-1.672-3.72-3.722-3.72zm-26.046.93a2.784 2.784 0 0 1 1.613 5.059.465.465 0 0 0 .13.814c2.345.803 4.055 3.247 4.23 6.22H2.004c.176-2.973 1.885-5.417 4.23-6.22a.465.465 0 0 0 .13-.814 2.784 2.784 0 0 1 1.613-5.058zm26.046 0a2.784 2.784 0 0 1 1.614 5.059.465.465 0 0 0 .13.814c2.345.803 4.054 3.247 4.23 6.22H28.05c.176-2.973 1.886-5.417 4.23-6.22a.465.465 0 0 0 .13-.814 2.784 2.784 0 0 1 1.613-5.058z"/>
        <path fill="#4DBDFF" stroke="#46BCFF" d="M20.956 17.265a.465.465 0 0 0-.058.014.465.465 0 0 0-.363.465v4.84L16.58 24.78a.469.469 0 0 0 .466.814L21 23.398l3.953 2.195a.469.469 0 1 0 .466-.814l-3.954-2.195v-4.84a.465.465 0 0 0-.509-.48z"/>
    </g>
</svg>
